<svg width="161" height="45" viewBox="0 0 161 45" fill="none" xmlns="http://www.w3.org/2000/svg">
<path d="M139.589 17.4305V9.31784C139.27 9.96838 138.925 10.5934 138.556 11.1929C138.198 11.7797 137.848 12.2899 137.503 12.7236C137.414 12.6471 137.28 12.5514 137.101 12.4366C136.923 12.3218 136.738 12.207 136.547 12.0922C136.368 11.9774 136.221 11.8945 136.106 11.8435C136.451 11.448 136.802 10.9825 137.159 10.4467C137.516 9.91098 137.854 9.34973 138.173 8.76296C138.492 8.1762 138.772 7.60219 139.015 7.04094C139.27 6.46694 139.461 5.95033 139.589 5.49112V5.37632H136.661V3.84564H139.589V0.095459H141.253V3.84564H143.415V5.37632H141.253V6.67741C141.47 6.9963 141.751 7.36621 142.095 7.78715C142.44 8.19533 142.784 8.59076 143.128 8.97343C143.486 9.3561 143.792 9.66862 144.047 9.91098C143.958 9.97475 143.83 10.0768 143.664 10.2171C143.511 10.3574 143.358 10.5041 143.205 10.6572C143.065 10.7975 142.95 10.9123 142.861 11.0016C142.644 10.772 142.389 10.4786 142.095 10.1214C141.815 9.75153 141.534 9.36886 141.253 8.97343V17.4305H139.589ZM143.473 17.4496C143.422 17.3348 143.333 17.1754 143.205 16.9713C143.09 16.7672 142.963 16.5631 142.822 16.359C142.695 16.1677 142.586 16.0273 142.497 15.938C143.479 15.6064 144.404 15.1855 145.271 14.6752C146.152 14.1522 146.93 13.5336 147.606 12.8193C147.147 12.2198 146.738 11.5692 146.381 10.8677C146.024 10.1533 145.737 9.38799 145.52 8.57163L147.089 8.11242C147.255 8.77572 147.465 9.38799 147.721 9.94924C147.988 10.5105 148.295 11.0335 148.639 11.5182C148.971 11.008 149.258 10.4595 149.5 9.87271C149.755 9.28595 149.946 8.66092 150.074 7.99762L151.719 8.41856C151.515 9.27319 151.247 10.0704 150.916 10.8103C150.584 11.5373 150.195 12.207 149.749 12.8193C150.463 13.5208 151.235 14.1204 152.064 14.6178C152.906 15.1153 153.735 15.5554 154.551 15.938C154.462 16.0146 154.341 16.1421 154.188 16.3207C154.035 16.5121 153.888 16.7098 153.748 16.9139C153.62 17.118 153.524 17.2774 153.461 17.3922C152.606 16.9585 151.777 16.4738 150.973 15.938C150.17 15.3896 149.417 14.7645 148.715 14.063C147.988 14.8155 147.178 15.4725 146.285 16.0337C145.405 16.5822 144.468 17.0542 143.473 17.4496ZM143.588 4.61098V3.06116H147.778V0.114593H149.5V3.06116H153.728V4.61098H143.588ZM144.315 9.22217C144.251 9.10737 144.149 8.96705 144.009 8.80123C143.881 8.63541 143.741 8.46958 143.588 8.30376C143.447 8.13793 143.326 8.01038 143.224 7.92109C143.594 7.69148 143.996 7.39172 144.43 7.02181C144.863 6.65189 145.278 6.25647 145.673 5.83553C146.069 5.41459 146.381 5.01916 146.611 4.64925L147.874 5.66333C147.44 6.32662 146.898 6.97716 146.247 7.61495C145.597 8.25273 144.953 8.78847 144.315 9.22217ZM153.078 9.14563C152.427 8.7247 151.77 8.20171 151.107 7.57668C150.457 6.95165 149.902 6.31387 149.443 5.66333L150.667 4.64925C150.935 5.03192 151.267 5.42734 151.662 5.83553C152.07 6.24371 152.491 6.62638 152.925 6.98354C153.371 7.32795 153.786 7.61495 154.169 7.84455C154.079 7.92109 153.958 8.04227 153.805 8.20809C153.665 8.37391 153.524 8.54612 153.384 8.72469C153.256 8.89052 153.154 9.03083 153.078 9.14563Z" fill="black"/>
<path d="M123.174 17.5072C123.148 17.2649 123.097 16.9715 123.021 16.6271C122.944 16.2954 122.861 16.0339 122.772 15.8426H124.781C125.049 15.8426 125.24 15.7979 125.355 15.7087C125.47 15.6066 125.527 15.4344 125.527 15.192V12.5899H117.854V11.0592H125.527V9.71985H126.331C126.637 9.51576 126.994 9.2734 127.402 8.99277C127.823 8.69939 128.187 8.41877 128.493 8.1509H121.203V6.67761H130.961L131.726 7.42382C131.484 7.66618 131.165 7.94681 130.77 8.2657C130.387 8.58459 129.972 8.90986 129.526 9.24151C129.08 9.5604 128.659 9.85378 128.263 10.1217C127.868 10.3895 127.536 10.6 127.268 10.7531V11.0592H134.615V12.5899H127.268V15.7087C127.268 16.9077 126.573 17.5072 125.183 17.5072H123.174ZM118.084 7.99783V3.75018H121.279C121.177 3.46955 121.031 3.15704 120.839 2.81263C120.661 2.45547 120.469 2.11107 120.265 1.77942C120.061 1.44777 119.87 1.1799 119.691 0.975812L121.184 0.26787C121.375 0.497473 121.586 0.784476 121.815 1.12888C122.045 1.47328 122.262 1.82407 122.466 2.18123C122.67 2.53839 122.823 2.8509 122.925 3.11877L121.528 3.75018H128.512C128.741 3.44404 128.997 3.06137 129.277 2.60216C129.558 2.1302 129.819 1.65824 130.062 1.18628C130.317 0.71432 130.502 0.331649 130.617 0.0382678L132.377 0.516606C132.173 0.975812 131.892 1.51155 131.535 2.12383C131.191 2.72334 130.853 3.26546 130.521 3.75018H134.386V7.99783H132.702V5.1852H119.749V7.99783H118.084ZM125.604 3.69278C125.527 3.41215 125.399 3.0805 125.221 2.69783C125.055 2.30241 124.864 1.91336 124.647 1.53069C124.443 1.14801 124.245 0.835499 124.054 0.593141L125.642 0C125.82 0.229603 126.012 0.529362 126.216 0.899278C126.433 1.26919 126.63 1.64549 126.809 2.02816C127 2.41083 127.141 2.74248 127.23 3.0231L125.604 3.69278Z" fill="black"/>
<path d="M111.444 17.3542C111.431 17.1118 111.38 16.8184 111.291 16.474C111.214 16.1296 111.138 15.8681 111.061 15.6896H112.573C113.057 15.6896 113.3 15.4791 113.3 15.0581V7.63432H107.942V0.612305H115.022V15.613C115.022 16.1998 114.862 16.6335 114.543 16.9141C114.237 17.2075 113.733 17.3542 113.032 17.3542H111.444ZM99.1982 17.3924V0.612305H106.259V7.63432H100.901V17.3924H99.1982ZM100.901 6.23757H104.594V4.74515H100.901V6.23757ZM109.607 6.23757H113.3V4.74515H109.607V6.23757ZM100.901 3.44407H104.594V1.97079H100.901V3.44407ZM109.607 3.44407H113.3V1.97079H109.607V3.44407Z" fill="black"/>
<path d="M88.3111 17.4498C88.2983 17.2074 88.2473 16.9141 88.158 16.5697C88.0815 16.238 87.9986 15.9701 87.9093 15.7661H89.8609C90.1288 15.7661 90.3201 15.7214 90.4349 15.6321C90.5497 15.5428 90.6071 15.3706 90.6071 15.1155V12.9534H79.2227V11.4801H90.6071V10.4852H81.7866V3.92238H87.2013V2.88917H79.5288V1.51155H87.2013V0H88.9042V1.51155H96.3855V2.88917H88.9042V3.92238H94.319V10.4852H92.3674V11.4801H96.6151V12.9534H92.3674V15.6513C92.3674 16.2763 92.1952 16.7291 91.8508 17.0097C91.5192 17.3031 90.9962 17.4498 90.2819 17.4498H88.3111ZM86.1107 16.7036C85.9066 16.4485 85.6452 16.1742 85.3263 15.8809C85.0201 15.5747 84.6949 15.275 84.3504 14.9816C84.006 14.6882 83.6808 14.4395 83.3746 14.2354L84.5418 12.9917C84.8479 13.1958 85.1796 13.4381 85.5367 13.7188C85.8939 13.9994 86.2383 14.2864 86.5699 14.5798C86.9016 14.8732 87.1822 15.1474 87.4118 15.4025C87.297 15.4918 87.1503 15.6194 86.9717 15.7852C86.8059 15.951 86.6401 16.1168 86.4743 16.2827C86.3212 16.4485 86.2 16.5888 86.1107 16.7036ZM83.5468 9.14584H87.2013V7.80649H83.5468V9.14584ZM88.9042 9.14584H92.5587V7.80649H88.9042V9.14584ZM83.5468 6.60108H87.2013V5.26173H83.5468V6.60108ZM88.9042 6.60108H92.5587V5.26173H88.9042V6.60108Z" fill="black"/>
<path d="M65.4471 17.2966C65.4343 17.0415 65.3833 16.729 65.294 16.3591C65.2175 16.0019 65.1345 15.7213 65.0453 15.5172H67.2647C67.5326 15.5172 67.724 15.4726 67.8388 15.3833C67.9536 15.2812 68.011 15.1027 68.011 14.8475V9.45187H60.1279V7.80639H68.011V4.99375H69.1016C69.3694 4.80242 69.6947 4.55368 70.0774 4.24754C70.4728 3.92865 70.8555 3.60976 71.2254 3.29086C71.5953 2.97197 71.8759 2.71048 72.0673 2.50639H62.2326V0.89917H74.6694L75.5113 1.72191C75.269 1.96427 74.9501 2.25765 74.5546 2.60206C74.172 2.94646 73.751 3.31 73.2918 3.69267C72.8454 4.06258 72.3989 4.4325 71.9525 4.80242C71.506 5.15958 71.0915 5.48485 70.7088 5.77823C70.3389 6.07161 70.0391 6.29483 69.8095 6.4479V7.80639H77.5586V9.45187H69.8095V15.4598C69.8095 16.0976 69.6309 16.5632 69.2738 16.8566C68.9294 17.1499 68.4 17.2966 67.6857 17.2966H65.4471Z" fill="black"/>
<path d="M50.6184 17.4116C49.9551 17.4116 49.4831 17.3095 49.2025 17.1054C48.9346 16.9013 48.8007 16.5633 48.8007 16.0914V14.5415H43.0989V8.8206H56.1097V14.5415H50.4845V15.4217C50.4845 15.5875 50.5291 15.7151 50.6184 15.8044C50.7204 15.8809 50.9118 15.9192 51.1924 15.9192H55.7462C56.0906 15.9192 56.3648 15.8681 56.5689 15.7661C56.7858 15.6513 56.9452 15.4344 57.0473 15.1155C57.1621 14.7839 57.245 14.3056 57.296 13.6805C57.4746 13.7826 57.7169 13.891 58.0231 14.0058C58.342 14.1206 58.6162 14.2099 58.8458 14.2737C58.731 15.1921 58.5716 15.8745 58.3675 16.321C58.1634 16.7674 57.8828 17.0608 57.5256 17.2011C57.1812 17.3414 56.7284 17.4116 56.1671 17.4116H50.6184ZM48.7816 8.09353V4.28595H42.8693V7.00291H41.1855V3.08053H48.7816V1.91339H42.2188V0.612305H57.2003V1.91339H50.4845V3.08053H58.157V7.00291H56.4733V4.28595H50.4845V8.09353H48.7816ZM44.7635 13.3553H48.8007V12.2072H44.7635V13.3553ZM44.7635 11.1549H48.8007V10.0069H44.7635V11.1549ZM50.4845 13.3553H54.4451V12.2072H50.4845V13.3553ZM50.4845 11.1549H54.4451V10.0069H50.4845V11.1549ZM43.7686 6.0845V5.03216H47.7675V6.0845H43.7686ZM51.4794 6.0845V5.03216H55.4783V6.0845H51.4794ZM43.7686 7.84479V6.81158H47.7675V7.84479H43.7686ZM51.4794 7.84479V6.81158H55.4783V7.84479H51.4794Z" fill="black"/>
<path d="M29.7055 17.4306V13.9674H26.2997V12.341H29.7055V7.04103C29.1315 7.93393 28.4555 8.83321 27.6774 9.73886C26.912 10.6318 26.0956 11.4736 25.2283 12.2645C24.3609 13.0426 23.4999 13.7186 22.6452 14.2927C22.5559 14.1779 22.4284 14.0375 22.2626 13.8717C22.1095 13.6931 21.95 13.5273 21.7842 13.3742C21.6184 13.2212 21.4781 13.1064 21.3633 13.0298C22.0648 12.6344 22.7728 12.1433 23.4871 11.5566C24.2142 10.9698 24.9157 10.3256 25.5918 9.62406C26.2679 8.9225 26.8929 8.20818 27.4669 7.4811C28.0536 6.74127 28.5447 6.03333 28.9402 5.35728H22.186V3.75006H29.7055V0.076416H31.4275V3.75006H38.9279V5.35728H32.1929C32.6138 6.0716 33.1177 6.7923 33.7044 7.51937C34.2912 8.24645 34.9226 8.94801 35.5986 9.62406C36.2875 10.3001 36.989 10.9251 37.7033 11.4992C38.4304 12.0604 39.1384 12.5324 39.8272 12.915C39.7124 12.9916 39.5657 13.1127 39.3871 13.2786C39.2085 13.4444 39.0363 13.6166 38.8705 13.7952C38.7174 13.9738 38.5962 14.1268 38.507 14.2544C37.6141 13.6549 36.7275 12.9597 35.8474 12.1688C34.98 11.378 34.17 10.5425 33.4174 9.66233C32.6648 8.76943 32.0015 7.87015 31.4275 6.9645V12.341H34.9098V13.9674H31.4275V17.4306H29.7055Z" fill="black"/>
<path d="M5.65527 16.1486V1.37744H17.2119V16.1486H5.65527ZM7.51123 14.4648H15.356V9.43267H7.51123V14.4648ZM7.51123 7.80632H15.356V3.06119H7.51123V7.80632Z" fill="black"/>
<path d="M146.097 44.7259V37.0725C145.688 37.8251 145.236 38.5586 144.738 39.2729C144.253 39.9744 143.807 40.5421 143.399 40.9758C143.335 40.8865 143.22 40.7717 143.054 40.6314C142.889 40.491 142.716 40.3571 142.538 40.2296C142.359 40.0892 142.212 39.9872 142.098 39.9234C142.442 39.6173 142.806 39.2219 143.188 38.7371C143.571 38.2524 143.941 37.7294 144.298 37.1682C144.655 36.5942 144.98 36.0202 145.274 35.4462C145.58 34.8722 145.816 34.3364 145.982 33.8389H142.672V32.2891H146.097V30.1844C145.586 30.2865 145.089 30.3821 144.604 30.4714C144.119 30.548 143.673 30.6054 143.265 30.6436C143.252 30.5416 143.207 30.3949 143.131 30.2036C143.067 29.9995 142.991 29.8018 142.901 29.6104C142.825 29.4063 142.755 29.2596 142.691 29.1704C143.15 29.1448 143.705 29.0811 144.355 28.979C145.006 28.877 145.676 28.7494 146.364 28.5963C147.053 28.4305 147.697 28.2519 148.297 28.0606C148.909 27.8693 149.4 27.6716 149.77 27.4675L150.669 28.8259C150.3 28.9918 149.866 29.1576 149.368 29.3234C148.871 29.4892 148.348 29.6423 147.799 29.7826V32.2891H150.861V33.8389H147.799V34.8339C148.004 35.1145 148.284 35.4462 148.641 35.8288C149.011 36.2115 149.388 36.5814 149.77 36.9386C150.166 37.283 150.504 37.5636 150.784 37.7805C150.695 37.8442 150.574 37.959 150.421 38.1249C150.28 38.2779 150.14 38.4438 150 38.6223C149.872 38.7882 149.777 38.9221 149.713 39.0241C149.458 38.8073 149.152 38.5075 148.794 38.1249C148.45 37.7422 148.118 37.3531 147.799 36.9577V44.7259H146.097ZM155.931 44.7259V39.5216C155.242 39.6619 154.547 39.8022 153.846 39.9425C153.157 40.0701 152.506 40.1913 151.894 40.3061C151.295 40.4209 150.784 40.5102 150.363 40.574L149.981 38.9667C150.402 38.9157 150.931 38.8392 151.569 38.7371C152.219 38.6351 152.921 38.5139 153.673 38.3736C154.439 38.2205 155.191 38.0675 155.931 37.9144V27.4292H157.653V37.5317C158.176 37.4169 158.655 37.3085 159.088 37.2064C159.522 37.0916 159.86 36.996 160.102 36.9194L160.275 38.5075C159.981 38.5968 159.605 38.6925 159.146 38.7945C158.686 38.8966 158.189 39.0114 157.653 39.1389V44.7259H155.931ZM154.133 32.5953C153.737 32.2253 153.291 31.8427 152.793 31.4472C152.296 31.0391 151.805 30.6947 151.32 30.414L152.392 29.1895C152.876 29.4829 153.38 29.8337 153.903 30.2418C154.439 30.65 154.892 31.0263 155.262 31.3707C155.172 31.4472 155.045 31.5684 154.879 31.7343C154.726 31.9001 154.579 32.0659 154.439 32.2317C154.298 32.3848 154.196 32.506 154.133 32.5953ZM153.406 36.9768C153.01 36.6069 152.557 36.2243 152.047 35.8288C151.537 35.4334 151.033 35.1018 150.536 34.8339L151.55 33.5902C152.034 33.8708 152.551 34.2152 153.099 34.6234C153.648 35.0188 154.114 35.3888 154.496 35.7332C154.407 35.8097 154.286 35.9309 154.133 36.0967C153.992 36.2498 153.852 36.4092 153.712 36.575C153.584 36.7409 153.482 36.8748 153.406 36.9768Z" fill="black"/>
<path d="M126.83 42.6594L125.835 40.88C126.741 40.6631 127.691 40.3378 128.686 39.9041C129.681 39.4577 130.663 38.9411 131.633 38.3543C132.615 37.7676 133.552 37.1425 134.445 36.4792C135.338 35.8032 136.142 35.1271 136.856 34.4511C137.583 33.775 138.176 33.1245 138.636 32.4995C138.674 32.6398 138.744 32.8375 138.846 33.0926C138.948 33.335 139.057 33.5773 139.171 33.8197C139.286 34.0493 139.375 34.2215 139.439 34.3363C138.827 35.1016 138.049 35.8925 137.105 36.7088C136.161 37.5252 135.121 38.3161 133.986 39.0814C132.851 39.834 131.671 40.5228 130.446 41.1478C129.222 41.7729 128.016 42.2767 126.83 42.6594ZM129.107 34.1641C128.967 34.011 128.744 33.8133 128.437 33.5709C128.144 33.3158 127.819 33.0607 127.462 32.8056C127.104 32.5377 126.754 32.2954 126.409 32.0785C126.078 31.8489 125.797 31.6831 125.567 31.581L126.754 30.0886C126.983 30.2162 127.264 30.3948 127.596 30.6244C127.94 30.854 128.291 31.0963 128.648 31.3514C129.005 31.6066 129.337 31.8553 129.643 32.0976C129.949 32.34 130.185 32.5377 130.351 32.6908L129.107 34.1641Z" fill="black"/>
<path d="M112.901 43.5781V34.7958C111.855 35.5229 110.783 36.1926 109.686 36.8048C108.602 37.4171 107.537 37.9528 106.491 38.4121C106.363 38.1952 106.185 37.9337 105.955 37.6276C105.738 37.3087 105.522 37.06 105.305 36.8814C106.376 36.4859 107.499 35.9757 108.672 35.3507C109.846 34.7129 110.987 33.9986 112.097 33.2077C113.22 32.4169 114.24 31.5941 115.158 30.7395C116.077 29.8849 116.823 29.043 117.397 28.2139L118.928 29.2853C118.379 29.9997 117.742 30.7076 117.014 31.4092C116.3 32.1107 115.535 32.7868 114.718 33.4373V43.5781H112.901Z" fill="black"/>
<path d="M91.2619 44.1331C91.1471 43.9545 90.9685 43.7121 90.7262 43.406C90.4838 43.1126 90.267 42.9021 90.0756 42.7746C91.9252 41.9837 93.2773 40.9314 94.1319 39.6175C94.9866 38.3037 95.4203 36.6327 95.433 34.6045H91.6829V38.5843H89.9226V34.6045C89.1955 34.6045 88.5194 34.6109 87.8944 34.6237C87.2821 34.6237 86.7592 34.6301 86.3255 34.6428C85.8918 34.6428 85.5984 34.6492 85.4453 34.6619V32.9017C85.5601 32.9017 85.828 32.908 86.2489 32.9208C86.6826 32.9208 87.2184 32.9272 87.8561 32.9399C88.4939 32.9399 89.1827 32.9463 89.9226 32.9591C89.9226 31.8621 89.9162 30.95 89.9034 30.223C89.9034 29.4959 89.8907 29.0303 89.8652 28.8262H91.7403C91.7275 29.0175 91.7147 29.4895 91.702 30.2421C91.6892 30.9947 91.6829 31.9003 91.6829 32.9591H95.433C95.433 32.6657 95.4267 32.3021 95.4139 31.8684C95.4139 31.422 95.4075 30.9628 95.3948 30.4908C95.3948 30.0189 95.3884 29.5916 95.3756 29.2089C95.3756 28.8262 95.3693 28.5583 95.3565 28.4053H97.1933V32.9591C97.9204 32.9463 98.5964 32.9399 99.2215 32.9399C99.8465 32.9272 100.382 32.9208 100.829 32.9208C101.275 32.908 101.581 32.9017 101.747 32.9017V34.6619C101.581 34.6492 101.275 34.6428 100.829 34.6428C100.395 34.6301 99.8593 34.6237 99.2215 34.6237C98.5964 34.6109 97.9204 34.6045 97.1933 34.6045C97.1806 36.9644 96.6831 38.9096 95.7009 40.4403C94.7187 41.9582 93.239 43.1891 91.2619 44.1331ZM100.503 31.6962C100.35 31.4284 100.146 31.1414 99.8912 30.8352C99.6488 30.5163 99.3937 30.2102 99.1258 29.9168C98.8707 29.6234 98.6347 29.3811 98.4179 29.1898L99.298 28.5201C99.4893 28.6987 99.7253 28.9474 100.006 29.2663C100.287 29.5724 100.554 29.8913 100.81 30.223C101.077 30.5419 101.282 30.8097 101.422 31.0266L100.503 31.6962ZM102.168 30.3569C102.015 30.089 101.811 29.802 101.556 29.4959C101.301 29.177 101.039 28.8772 100.771 28.5966C100.503 28.3032 100.261 28.0672 100.044 27.8887L100.905 27.219C101.109 27.3848 101.352 27.6208 101.632 27.9269C101.913 28.2331 102.187 28.5456 102.455 28.8645C102.736 29.1834 102.946 29.4512 103.086 29.6681L102.168 30.3569Z" fill="black"/>
<path d="M69.965 43.9032C69.9012 43.7757 69.7928 43.6099 69.6397 43.4058C69.4994 43.2017 69.3527 43.004 69.1996 42.8126C69.0466 42.6213 68.9126 42.481 68.7978 42.3917C70.5709 41.7284 71.8592 40.8482 72.6628 39.7513C73.4664 38.6543 73.9065 37.2384 73.983 35.5036C73.1794 35.5164 72.3949 35.5291 71.6296 35.5419C70.877 35.5546 70.1882 35.5674 69.5632 35.5801C68.9509 35.5929 68.4343 35.6057 68.0134 35.6184C67.6052 35.6184 67.3437 35.6248 67.2289 35.6375L67.1523 33.9155C67.2544 33.9155 67.5797 33.9155 68.1282 33.9155C68.6767 33.9155 69.3718 33.9155 70.2137 33.9155C71.0556 33.9028 71.9676 33.89 72.9498 33.8773C73.932 33.8645 74.9142 33.8517 75.8964 33.839C76.8913 33.8135 77.8097 33.7943 78.6516 33.7816C79.4935 33.7688 80.1887 33.7561 80.7372 33.7433C81.2984 33.7306 81.6301 33.7178 81.7321 33.7051L81.7513 35.4271C81.6237 35.4271 81.2729 35.4334 80.6989 35.4462C80.1249 35.4462 79.4106 35.4526 78.5559 35.4653C77.7013 35.4653 76.7829 35.4717 75.8007 35.4845C75.7114 37.5637 75.1948 39.2793 74.2509 40.6314C73.307 41.9835 71.8783 43.0741 69.965 43.9032ZM69.8502 31.0646L69.7545 29.3235C69.8566 29.3235 70.1308 29.3235 70.5773 29.3235C71.0365 29.3235 71.5913 29.3171 72.2419 29.3043C72.9052 29.2916 73.6004 29.2788 74.3274 29.2661C75.0545 29.2406 75.7433 29.2214 76.3939 29.2087C77.0572 29.1959 77.612 29.1832 78.0585 29.1704C78.5177 29.1449 78.7919 29.1321 78.8812 29.1321L78.9195 30.8541C78.8047 30.8414 78.5177 30.8414 78.0585 30.8541C77.612 30.8541 77.0635 30.8605 76.413 30.8733C75.7752 30.886 75.0992 30.9052 74.3848 30.9307C73.6833 30.9434 73.0072 30.9626 72.3567 30.9881C71.7061 31.0008 71.1513 31.0136 70.6921 31.0264C70.2456 31.0391 69.965 31.0519 69.8502 31.0646ZM81.5216 32.1744C81.3686 31.9065 81.1645 31.6131 80.9094 31.2942C80.667 30.9753 80.4119 30.6692 80.144 30.3758C79.8889 30.0824 79.6529 29.8401 79.4361 29.6487L80.3162 28.9982C80.5076 29.164 80.7436 29.4064 81.0242 29.7253C81.3048 30.0442 81.5727 30.3694 81.8278 30.7011C82.0957 31.02 82.2997 31.2878 82.4401 31.5047L81.5216 32.1744ZM83.1863 30.8159C83.0332 30.548 82.8291 30.261 82.574 29.9549C82.3189 29.636 82.0574 29.3362 81.7895 29.0556C81.5216 28.7622 81.2793 28.5262 81.0624 28.3477L81.9235 27.678C82.1275 27.8438 82.3699 28.0862 82.6505 28.4051C82.9312 28.7112 83.2054 29.0237 83.4733 29.3426C83.7539 29.6615 83.9644 29.9294 84.1047 30.1462L83.1863 30.8159Z" fill="black"/>
<path d="M59.9517 43.5779C59.3522 43.5779 58.81 43.444 58.3253 43.1761C57.8406 42.8955 57.4324 42.5192 57.1008 42.0472L57.0434 43.3674H55.5127V29.6487H57.2347V35.3505C57.5536 34.904 57.9427 34.5596 58.4019 34.3173C58.8611 34.0749 59.3777 33.9537 59.9517 33.9537C60.7936 33.9537 61.5398 34.1514 62.1903 34.5469C62.8408 34.9295 63.3511 35.4844 63.721 36.2115C64.1037 36.9258 64.295 37.7804 64.295 38.7754C64.295 39.7576 64.1037 40.6122 63.721 41.3393C63.3511 42.0536 62.8408 42.6085 62.1903 43.0039C61.5398 43.3866 60.7936 43.5779 59.9517 43.5779ZM59.8943 42.009C60.6724 42.009 61.3165 41.722 61.8268 41.148C62.337 40.5739 62.5921 39.7831 62.5921 38.7754C62.5921 37.7549 62.337 36.9577 61.8268 36.3837C61.3165 35.8097 60.6724 35.5227 59.8943 35.5227C59.1162 35.5227 58.472 35.8097 57.9618 36.3837C57.4643 36.9577 57.2156 37.7549 57.2156 38.7754C57.2156 39.7831 57.4643 40.5739 57.9618 41.148C58.472 41.722 59.1162 42.009 59.8943 42.009Z" fill="black"/>
<path d="M49.4193 43.578C48.5519 43.578 47.7865 43.3931 47.1232 43.0232C46.4599 42.6532 45.9433 42.1111 45.5734 41.3968C45.2035 40.6697 45.0186 39.796 45.0186 38.7755C45.0186 37.7933 45.2035 36.9451 45.5734 36.2308C45.9433 35.5037 46.4472 34.9424 47.085 34.547C47.7355 34.1516 48.4817 33.9539 49.3236 33.9539C50.1655 33.9539 50.8798 34.1643 51.4666 34.5853C52.0661 34.9934 52.5189 35.5419 52.825 36.2308C53.1439 36.9196 53.3034 37.6721 53.3034 38.4885V38.9477H46.7023C46.7278 39.9682 46.9829 40.7463 47.4677 41.282C47.9651 41.805 48.622 42.0665 49.4384 42.0665C50.0889 42.0665 50.6247 41.907 51.0456 41.5881C51.4793 41.2693 51.8429 40.7909 52.1362 40.1531L53.4373 41.0141C53.0036 41.907 52.4488 42.5576 51.7727 42.9658C51.1094 43.3739 50.3249 43.578 49.4193 43.578ZM46.798 37.5701H51.6196C51.5176 36.9068 51.2625 36.3711 50.8543 35.9629C50.4461 35.5547 49.9295 35.3506 49.3045 35.3506C48.6412 35.3506 48.0927 35.5419 47.659 35.9246C47.2253 36.2945 46.9383 36.843 46.798 37.5701Z" fill="black"/>
<path d="M17.3125 36.3877H25.1323" stroke="black" stroke-width="1.4" stroke-linecap="round"/>
<path d="M17.1591 32.4254C16.5726 28.1265 3.08349 30.1754 2.30151 30.2759C-1.41306 30.7536 1.51953 41.2619 3.08349 42.456C4.64744 43.6502 9.73031 43.4113 13.4447 43.1725C17.1591 42.9337 17.7456 36.7242 17.1591 32.4254Z" fill="black" stroke="black" stroke-linecap="round"/>
<path d="M25.3282 32.4254C25.9147 28.1265 39.4038 30.1754 40.1858 30.2759C43.9004 30.7536 40.9678 41.2619 39.4038 42.456C37.8399 43.6502 32.757 43.4113 29.0426 43.1725C25.3282 42.9337 24.7417 36.7242 25.3282 32.4254Z" fill="black" stroke="black" stroke-linecap="round"/>
</svg>
