<svg width="161" height="45" viewBox="0 0 161 45" fill="none" xmlns="http://www.w3.org/2000/svg">
<path d="M139.785 17.3459V9.27258C139.466 9.91997 139.121 10.542 138.75 11.1386C138.393 11.7225 138.041 12.2303 137.697 12.6618C137.607 12.5857 137.473 12.4905 137.294 12.3762C137.115 12.262 136.93 12.1477 136.739 12.0335C136.56 11.9193 136.413 11.8367 136.298 11.786C136.643 11.3925 136.994 10.9291 137.352 10.396C137.709 9.86284 138.048 9.30432 138.367 8.7204C138.687 8.13648 138.968 7.56525 139.21 7.00672C139.466 6.4355 139.657 5.9214 139.785 5.46442V5.35017H136.854V3.82691H139.785V0.0949097H141.452V3.82691H143.617V5.35017H141.452V6.64495C141.669 6.9623 141.95 7.33042 142.295 7.74931C142.64 8.15552 142.985 8.54903 143.33 8.92984C143.687 9.31066 143.994 9.62166 144.249 9.86284C144.16 9.92631 144.032 10.0279 143.866 10.1675C143.713 10.3071 143.56 10.4531 143.406 10.6054C143.266 10.7451 143.151 10.8593 143.061 10.9482C142.844 10.7197 142.589 10.4277 142.295 10.0723C142.014 9.70417 141.733 9.32335 141.452 8.92984V17.3459H139.785ZM143.675 17.3649C143.624 17.2507 143.534 17.092 143.406 16.8889C143.291 16.6858 143.164 16.4827 143.023 16.2796C142.895 16.0892 142.787 15.9496 142.697 15.8607C143.681 15.5307 144.607 15.1118 145.476 14.604C146.357 14.0836 147.136 13.4679 147.813 12.757C147.353 12.1604 146.945 11.513 146.587 10.8149C146.229 10.104 145.942 9.3424 145.725 8.52999L147.296 8.07301C147.462 8.73309 147.673 9.3424 147.928 9.90093C148.196 10.4595 148.503 10.9799 148.848 11.4623C149.18 10.9545 149.467 10.4087 149.71 9.82476C149.966 9.24084 150.157 8.61885 150.285 7.95876L151.933 8.37766C151.728 9.22815 151.46 10.0215 151.128 10.7578C150.796 11.4813 150.406 12.1477 149.959 12.757C150.675 13.4552 151.447 14.0518 152.278 14.5469C153.121 15.0419 153.951 15.4799 154.769 15.8607C154.679 15.9369 154.558 16.0638 154.404 16.2415C154.251 16.4319 154.104 16.6287 153.964 16.8318C153.836 17.0349 153.74 17.1936 153.676 17.3078C152.821 16.8762 151.99 16.3938 151.186 15.8607C150.381 15.3149 149.627 14.6929 148.925 13.9947C148.196 14.7436 147.385 15.3974 146.491 15.9559C145.61 16.5017 144.671 16.9714 143.675 17.3649ZM143.79 4.58854V3.04624H147.986V0.113951H149.71V3.04624H153.945V4.58854H143.79ZM144.518 9.17738C144.454 9.06313 144.352 8.9235 144.211 8.75848C144.083 8.59346 143.943 8.42844 143.79 8.26342C143.649 8.0984 143.528 7.97146 143.426 7.8826C143.796 7.65411 144.198 7.35581 144.633 6.98768C145.067 6.61956 145.482 6.22605 145.878 5.80715C146.274 5.38825 146.587 4.99474 146.817 4.62662L148.082 5.63579C147.647 6.29587 147.104 6.94325 146.453 7.57795C145.801 8.21264 145.156 8.74578 144.518 9.17738ZM153.293 9.10121C152.642 8.68232 151.984 8.16187 151.32 7.53987C150.668 6.91787 150.113 6.28317 149.653 5.63579L150.879 4.62662C151.147 5.00744 151.479 5.40095 151.875 5.80715C152.284 6.21336 152.706 6.59417 153.14 6.9496C153.587 7.29234 154.002 7.57795 154.385 7.80644C154.296 7.8826 154.175 8.00319 154.021 8.16821C153.881 8.33323 153.74 8.5046 153.6 8.68231C153.472 8.84733 153.37 8.98697 153.293 9.10121Z" fill="white"/>
<path d="M123.349 17.4223C123.324 17.1812 123.272 16.8892 123.196 16.5465C123.119 16.2164 123.036 15.9562 122.947 15.7658H124.959C125.227 15.7658 125.418 15.7214 125.533 15.6325C125.648 15.531 125.706 15.3596 125.706 15.1184V12.5289H118.022V11.0056H125.706V9.67273H126.511C126.817 9.46963 127.175 9.22845 127.584 8.94918C128.005 8.65722 128.369 8.37796 128.676 8.11138H121.376V6.64524H131.147L131.914 7.38783C131.671 7.62902 131.352 7.90828 130.956 8.22563C130.573 8.54298 130.157 8.86667 129.71 9.19671C129.263 9.51406 128.842 9.80602 128.446 10.0726C128.05 10.3392 127.718 10.5486 127.449 10.7009V11.0056H134.807V12.5289H127.449V15.6325C127.449 16.8257 126.753 17.4223 125.361 17.4223H123.349ZM118.252 7.95906V3.732H121.452C121.35 3.45273 121.203 3.14173 121.011 2.799C120.833 2.44357 120.641 2.10084 120.437 1.7708C120.232 1.44076 120.041 1.17418 119.862 0.971081L121.356 0.266571C121.548 0.495061 121.759 0.780673 121.989 1.12341C122.219 1.46614 122.436 1.81522 122.64 2.17065C122.844 2.52608 122.998 2.83708 123.1 3.10365L121.701 3.732H128.695C128.925 3.42735 129.18 3.04653 129.461 2.58955C129.742 2.11988 130.004 1.6502 130.247 1.18053C130.502 0.710858 130.688 0.330041 130.802 0.0380823L132.565 0.514102C132.361 0.971082 132.08 1.50422 131.722 2.11353C131.377 2.71014 131.039 3.24963 130.707 3.732H134.577V7.95906H132.891V5.16006H119.919V7.95906H118.252ZM125.782 3.67488C125.706 3.39561 125.578 3.06557 125.399 2.68475C125.233 2.29124 125.042 1.90408 124.824 1.52327C124.62 1.14245 124.422 0.831449 124.23 0.590265L125.821 0C126 0.22849 126.191 0.526796 126.396 0.894919C126.613 1.26304 126.811 1.63751 126.99 2.01833C127.181 2.39914 127.322 2.72918 127.411 3.00845L125.782 3.67488Z" fill="white"/>
<path d="M111.601 17.27C111.588 17.0288 111.537 16.7368 111.447 16.3941C111.371 16.0513 111.294 15.7911 111.217 15.6134H112.731C113.216 15.6134 113.459 15.404 113.459 14.9851V7.59723H108.094V0.609253H115.184V15.5372C115.184 16.1212 115.024 16.5528 114.705 16.832C114.398 17.124 113.893 17.27 113.191 17.27H111.601ZM99.3379 17.308V0.609253H106.408V7.59723H101.043V17.308H99.3379ZM101.043 6.20725H104.741V4.72207H101.043V6.20725ZM109.761 6.20725H113.459V4.72207H109.761V6.20725ZM101.043 3.42729H104.741V1.96115H101.043V3.42729ZM109.761 3.42729H113.459V1.96115H109.761V3.42729Z" fill="white"/>
<path d="M88.4371 17.3652C88.4244 17.124 88.3733 16.8321 88.2839 16.4893C88.2072 16.1593 88.1242 15.8927 88.0348 15.6896H89.9891C90.2574 15.6896 90.449 15.6452 90.564 15.5563C90.6789 15.4675 90.7364 15.2961 90.7364 15.0422V12.8906H79.3359V11.4245H90.7364V10.4344H81.9034V3.90337H87.3258V2.87516H79.6425V1.50422H87.3258V0H89.0311V1.50422H96.5229V2.87516H89.0311V3.90337H94.4535V10.4344H92.4992V11.4245H96.7528V12.8906H92.4992V15.5754C92.4992 16.1974 92.3267 16.648 91.9818 16.9273C91.6497 17.2192 91.126 17.3652 90.4107 17.3652H88.4371ZM86.2337 16.6226C86.0293 16.3687 85.7675 16.0958 85.4481 15.8039C85.1416 15.4992 84.8158 15.2009 84.4709 14.909C84.126 14.617 83.8003 14.3695 83.4938 14.1664L84.6625 12.9287C84.9691 13.1318 85.3012 13.373 85.6589 13.6523C86.0165 13.9315 86.3614 14.2171 86.6935 14.5091C87.0257 14.8011 87.3067 15.074 87.5366 15.3278C87.4216 15.4167 87.2747 15.5436 87.0959 15.7087C86.9299 15.8737 86.7638 16.0387 86.5977 16.2037C86.4445 16.3687 86.3231 16.5084 86.2337 16.6226ZM83.6662 9.10151H87.3258V7.76865H83.6662V9.10151ZM89.0311 9.10151H92.6908V7.76865H89.0311V9.10151ZM83.6662 6.56908H87.3258V5.23622H83.6662V6.56908ZM89.0311 6.56908H92.6908V5.23622H89.0311V6.56908Z" fill="white"/>
<path d="M65.5395 17.2129C65.5267 16.959 65.4756 16.648 65.3862 16.2799C65.3096 15.9244 65.2265 15.6452 65.1371 15.4421H67.3597C67.628 15.4421 67.8196 15.3976 67.9345 15.3088C68.0495 15.2072 68.107 15.0295 68.107 14.7756V9.40614H60.2129V7.76863H68.107V4.96963H69.1991C69.4674 4.77922 69.7931 4.53169 70.1763 4.22704C70.5723 3.90969 70.9555 3.59234 71.3259 3.275C71.6964 2.95765 71.9774 2.69743 72.169 2.49433H62.3205V0.894897H74.7748L75.6179 1.71365C75.3752 1.95484 75.0558 2.24679 74.6599 2.58953C74.2767 2.93226 73.8551 3.29404 73.3953 3.67485C72.9482 4.04298 72.5011 4.4111 72.054 4.77922C71.607 5.13465 71.1918 5.45834 70.8086 5.7503C70.4382 6.04226 70.138 6.26441 69.9081 6.41673V7.76863H77.6681V9.40614H69.9081V15.385C69.9081 16.0196 69.7292 16.483 69.3716 16.7749C69.0267 17.0669 68.4966 17.2129 67.7813 17.2129H65.5395Z" fill="white"/>
<path d="M50.6883 17.3271C50.0241 17.3271 49.5514 17.2255 49.2704 17.0224C49.0022 16.8193 48.868 16.4829 48.868 16.0133V14.471H43.1582V8.77776H56.1873V14.471H50.5542V15.3468C50.5542 15.5119 50.5989 15.6388 50.6883 15.7277C50.7905 15.8038 50.9821 15.8419 51.2631 15.8419H55.8233C56.1682 15.8419 56.4428 15.7911 56.6472 15.6896C56.8643 15.5753 57.024 15.3595 57.1262 15.0422C57.2412 14.7121 57.3242 14.2361 57.3753 13.6141C57.5541 13.7157 57.7968 13.8236 58.1034 13.9378C58.4227 14.0521 58.6974 14.1409 58.9273 14.2044C58.8123 15.1183 58.6526 15.7975 58.4483 16.2418C58.2439 16.686 57.9629 16.978 57.6052 17.1176C57.2603 17.2573 56.8069 17.3271 56.2448 17.3271H50.6883ZM48.8489 8.05421V4.26509H42.9283V6.96888H41.2422V3.06552H48.8489V1.90403H42.2769V0.609253H57.2795V1.90403H50.5542V3.06552H58.2375V6.96888H56.5514V4.26509H50.5542V8.05421H48.8489ZM44.8252 13.2904H48.868V12.148H44.8252V13.2904ZM44.8252 11.1007H48.868V9.95829H44.8252V11.1007ZM50.5542 13.2904H54.5204V12.148H50.5542V13.2904ZM50.5542 11.1007H54.5204V9.95829H50.5542V11.1007ZM43.8288 6.05492V5.00768H47.8334V6.05492H43.8288ZM51.5505 6.05492V5.00768H55.555V6.05492H51.5505ZM43.8288 7.80668V6.77848H47.8334V7.80668H43.8288ZM51.5505 7.80668V6.77848H55.555V7.80668H51.5505Z" fill="white"/>
<path d="M29.7465 17.3461V13.8997H26.336V12.2812H29.7465V7.0069C29.1717 7.89548 28.4947 8.79039 27.7155 9.69166C26.9491 10.5802 26.1316 11.418 25.263 12.205C24.3944 12.9794 23.5322 13.6521 22.6763 14.2234C22.5869 14.1091 22.4592 13.9695 22.2931 13.8045C22.1398 13.6268 21.9802 13.4617 21.8141 13.3094C21.6481 13.1571 21.5075 13.0428 21.3926 12.9667C22.0951 12.5732 22.8041 12.0845 23.5194 11.5005C24.2475 10.9166 24.95 10.2756 25.627 9.57741C26.304 8.87925 26.9299 8.16839 27.5048 7.44484C28.0923 6.7086 28.5841 6.00409 28.9801 5.33131H22.2165V3.73189H29.7465V0.0760498H31.471V3.73189H38.9819V5.33131H32.2374C32.6589 6.04217 33.1635 6.75937 33.7511 7.48292C34.3387 8.20648 34.9709 8.90464 35.6479 9.57741C36.3377 10.2502 37.0403 10.8722 37.7556 11.4434C38.4837 12.0019 39.1926 12.4716 39.8824 12.8524C39.7674 12.9286 39.6205 13.0492 39.4417 13.2142C39.2629 13.3792 39.0904 13.5506 38.9244 13.7283C38.7711 13.906 38.6498 14.0584 38.5603 14.1853C37.6662 13.5887 36.7784 12.8969 35.897 12.1098C35.0284 11.3228 34.2173 10.4914 33.4637 9.6155C32.71 8.72692 32.0458 7.83201 31.471 6.93074V12.2812H34.9582V13.8997H31.471V17.3461H29.7465Z" fill="white"/>
<path d="M5.66406 16.0702V1.37073H17.237V16.0702H5.66406ZM7.52263 14.3946H15.3784V9.38691H7.52263V14.3946ZM7.52263 7.76844H15.3784V3.04632H7.52263V7.76844Z" fill="white"/>
<path d="M146.302 44.5087V36.8924C145.894 37.6413 145.44 38.3712 144.942 39.0821C144.457 39.7803 144.01 40.3451 143.601 40.7767C143.537 40.6879 143.422 40.5736 143.256 40.434C143.09 40.2944 142.917 40.1611 142.739 40.0341C142.56 39.8945 142.413 39.793 142.298 39.7295C142.643 39.4248 143.007 39.0313 143.39 38.549C143.773 38.0666 144.144 37.5461 144.501 36.9876C144.859 36.4164 145.185 35.8452 145.478 35.2739C145.785 34.7027 146.021 34.1696 146.187 33.6745H142.873V32.1322H146.302V30.0377C145.791 30.1393 145.293 30.2345 144.808 30.3233C144.322 30.3995 143.875 30.4566 143.467 30.4947C143.454 30.3931 143.409 30.2472 143.333 30.0568C143.269 29.8537 143.192 29.6569 143.103 29.4665C143.026 29.2634 142.956 29.1174 142.892 29.0286C143.352 29.0032 143.907 28.9397 144.559 28.8381C145.21 28.7366 145.881 28.6097 146.571 28.4573C147.26 28.2923 147.905 28.1146 148.506 27.9242C149.119 27.7338 149.611 27.537 149.981 27.3339L150.882 28.6858C150.511 28.8508 150.077 29.0159 149.579 29.1809C149.081 29.3459 148.557 29.4982 148.008 29.6379V32.1322H151.073V33.6745H148.008V34.6646C148.212 34.9439 148.493 35.2739 148.851 35.6548C149.221 36.0356 149.598 36.4037 149.981 36.7591C150.377 37.1019 150.716 37.3811 150.997 37.5969C150.907 37.6604 150.786 37.7746 150.633 37.9396C150.492 38.092 150.352 38.257 150.211 38.4347C150.083 38.5997 149.988 38.733 149.924 38.8346C149.668 38.6188 149.362 38.3205 149.004 37.9396C148.659 37.5588 148.327 37.1717 148.008 36.7782V44.5087H146.302ZM156.151 44.5087V39.3296C155.461 39.4693 154.765 39.6089 154.062 39.7485C153.373 39.8755 152.721 39.9961 152.108 40.1103C151.508 40.2245 150.997 40.3134 150.575 40.3769L150.192 38.7774C150.613 38.7267 151.144 38.6505 151.782 38.549C152.434 38.4474 153.136 38.3268 153.89 38.1872C154.656 38.0349 155.41 37.8825 156.151 37.7302V27.2958H157.875V37.3494C158.399 37.2351 158.878 37.1272 159.312 37.0257C159.747 36.9114 160.085 36.8162 160.328 36.7401L160.5 38.3205C160.206 38.4093 159.83 38.5045 159.37 38.6061C158.91 38.7076 158.412 38.8219 157.875 38.9488V44.5087H156.151ZM154.35 32.4369C153.954 32.0687 153.507 31.6879 153.009 31.2944C152.51 30.8882 152.019 30.5455 151.533 30.2662L152.606 29.0476C153.092 29.3396 153.596 29.6886 154.12 30.0948C154.656 30.501 155.11 30.8755 155.48 31.2182C155.391 31.2944 155.263 31.415 155.097 31.58C154.944 31.745 154.797 31.9101 154.656 32.0751C154.516 32.2274 154.414 32.348 154.35 32.4369ZM153.622 36.7972C153.226 36.4291 152.772 36.0483 152.261 35.6548C151.75 35.2612 151.246 34.9312 150.748 34.6646L151.763 33.427C152.249 33.7062 152.766 34.049 153.315 34.4552C153.864 34.8487 154.331 35.2168 154.714 35.5595C154.624 35.6357 154.503 35.7563 154.35 35.9213C154.209 36.0737 154.069 36.2323 153.928 36.3973C153.801 36.5624 153.698 36.6956 153.622 36.7972Z" fill="white"/>
<path d="M127.008 42.4524L126.011 40.6816C126.918 40.4658 127.87 40.1421 128.866 39.7105C129.863 39.2662 130.846 38.7521 131.817 38.1682C132.801 37.5843 133.739 36.9623 134.634 36.3022C135.528 35.6294 136.332 34.9566 137.048 34.2839C137.776 33.6111 138.37 32.9637 138.83 32.3417C138.868 32.4813 138.938 32.6781 139.041 32.932C139.143 33.1732 139.251 33.4143 139.366 33.6555C139.481 33.884 139.571 34.0554 139.634 34.1696C139.021 34.9313 138.242 35.7183 137.297 36.5307C136.352 37.3431 135.311 38.1301 134.174 38.8917C133.037 39.6407 131.855 40.3262 130.629 40.9482C129.403 41.5702 128.196 42.0716 127.008 42.4524ZM129.288 33.9983C129.147 33.8459 128.924 33.6492 128.617 33.408C128.323 33.1541 127.998 32.9002 127.64 32.6464C127.282 32.3798 126.931 32.1386 126.586 31.9228C126.254 31.6943 125.973 31.5293 125.743 31.4277L126.931 29.9426C127.161 30.0695 127.442 30.2472 127.774 30.4757C128.119 30.7042 128.47 30.9454 128.828 31.1993C129.186 31.4531 129.518 31.7007 129.824 31.9418C130.131 32.183 130.367 32.3798 130.533 32.5321L129.288 33.9983Z" fill="white"/>
<path d="M113.058 43.3666V34.6269C112.01 35.3504 110.937 36.0169 109.839 36.6262C108.753 37.2355 107.687 37.7686 106.639 38.2256C106.511 38.0098 106.333 37.7496 106.103 37.4449C105.885 37.1276 105.668 36.88 105.451 36.7023C106.524 36.3088 107.648 35.8011 108.823 35.1791C109.999 34.5444 111.142 33.8335 112.253 33.0465C113.377 32.2595 114.399 31.4407 115.319 30.5902C116.238 29.7397 116.986 28.9019 117.561 28.0768L119.093 29.1431C118.544 29.854 117.905 30.5585 117.177 31.2567C116.462 31.9548 115.696 32.6276 114.878 33.275V43.3666H113.058Z" fill="white"/>
<path d="M91.3873 43.9187C91.2723 43.741 91.0935 43.4998 90.8508 43.1952C90.6081 42.9032 90.3909 42.6938 90.1993 42.5668C92.0515 41.7798 93.4055 40.7326 94.2613 39.4251C95.1172 38.1176 95.5515 36.4547 95.5642 34.4364H91.8088V38.3969H90.046V34.4364C89.3179 34.4364 88.6409 34.4428 88.015 34.4555C87.4019 34.4555 86.8782 34.4618 86.4439 34.4745C86.0096 34.4745 85.7158 34.4808 85.5625 34.4935V32.7418C85.6775 32.7418 85.9457 32.7481 86.3672 32.7608C86.8015 32.7608 87.338 32.7672 87.9767 32.7799C88.6154 32.7799 89.3052 32.7862 90.046 32.7989C90.046 31.7072 90.0397 30.7996 90.0269 30.0761C90.0269 29.3525 90.0141 28.8892 89.9886 28.6861H91.8663C91.8535 28.8765 91.8407 29.3462 91.828 30.0951C91.8152 30.8441 91.8088 31.7453 91.8088 32.7989H95.5642C95.5642 32.507 95.5579 32.1452 95.5451 31.7136C95.5451 31.2693 95.5387 30.8123 95.5259 30.3426C95.5259 29.873 95.5195 29.4477 95.5068 29.0669C95.5068 28.6861 95.5004 28.4195 95.4876 28.2672H97.327V32.7989C98.0551 32.7862 98.7321 32.7799 99.358 32.7799C99.9839 32.7672 100.52 32.7608 100.967 32.7608C101.415 32.7481 101.721 32.7418 101.887 32.7418V34.4935C101.721 34.4808 101.415 34.4745 100.967 34.4745C100.533 34.4618 99.9967 34.4555 99.358 34.4555C98.7321 34.4428 98.0551 34.4364 97.327 34.4364C97.3142 36.7848 96.8161 38.7206 95.8325 40.2439C94.8489 41.7544 93.3672 42.9794 91.3873 43.9187ZM100.642 31.5422C100.488 31.2756 100.284 30.99 100.029 30.6854C99.7859 30.368 99.5305 30.0634 99.2622 29.7714C99.0067 29.4795 98.7704 29.2383 98.5533 29.0479L99.4347 28.3814C99.6263 28.5592 99.8626 28.8067 100.144 29.124C100.425 29.4287 100.693 29.746 100.948 30.0761C101.217 30.3934 101.421 30.66 101.561 30.8758L100.642 31.5422ZM102.309 30.2094C102.155 29.9428 101.951 29.6572 101.696 29.3525C101.44 29.0352 101.178 28.7369 100.91 28.4576C100.642 28.1656 100.399 27.9308 100.182 27.7531L101.044 27.0867C101.249 27.2517 101.491 27.4865 101.772 27.7912C102.053 28.0958 102.328 28.4068 102.596 28.7242C102.877 29.0415 103.088 29.3081 103.228 29.5239L102.309 30.2094Z" fill="white"/>
<path d="M70.0607 43.6902C69.9969 43.5632 69.8883 43.3982 69.735 43.1951C69.5945 42.992 69.4476 42.7953 69.2943 42.6049C69.141 42.4144 69.0069 42.2748 68.8919 42.186C70.6675 41.5259 71.9576 40.65 72.7623 39.5583C73.5671 38.4667 74.0078 37.0576 74.0844 35.3313C73.2797 35.344 72.4941 35.3567 71.7277 35.3694C70.974 35.382 70.2843 35.3947 69.6584 35.4074C69.0452 35.4201 68.5279 35.4328 68.1064 35.4455C67.6976 35.4455 67.4357 35.4519 67.3208 35.4646L67.2441 33.7509C67.3463 33.7509 67.6721 33.7509 68.2213 33.7509C68.7706 33.7509 69.4668 33.7509 70.3098 33.7509C71.1529 33.7382 72.0662 33.7255 73.0498 33.7128C74.0333 33.7001 75.0169 33.6874 76.0005 33.6747C76.9968 33.6493 77.9165 33.6303 78.7596 33.6176C79.6026 33.6049 80.2988 33.5922 80.8481 33.5795C81.4101 33.5668 81.7422 33.5541 81.8444 33.5414L81.8636 35.2551C81.7358 35.2551 81.3845 35.2615 80.8097 35.2741C80.2349 35.2741 79.5196 35.2805 78.6638 35.2932C77.8079 35.2932 76.8882 35.2995 75.9047 35.3122C75.8152 37.3813 75.2979 39.0887 74.3527 40.4342C73.4074 41.7798 71.9768 42.8651 70.0607 43.6902ZM69.9458 30.9138L69.85 29.1811C69.9522 29.1811 70.2268 29.1811 70.6739 29.1811C71.1337 29.1811 71.6894 29.1747 72.3408 29.162C73.005 29.1494 73.7012 29.1367 74.4293 29.124C75.1574 29.0986 75.8472 29.0795 76.4986 29.0668C77.1629 29.0541 77.7185 29.0415 78.1656 29.0288C78.6254 29.0034 78.9001 28.9907 78.9895 28.9907L79.0278 30.7044C78.9129 30.6917 78.6254 30.6917 78.1656 30.7044C77.7185 30.7044 77.1692 30.7107 76.5178 30.7234C75.8791 30.7361 75.2021 30.7551 74.4868 30.7805C73.7842 30.7932 73.1072 30.8123 72.4558 30.8376C71.8043 30.8503 71.2487 30.863 70.7888 30.8757C70.3417 30.8884 70.0607 30.9011 69.9458 30.9138ZM81.6336 32.0182C81.4804 31.7516 81.276 31.4596 81.0205 31.1423C80.7778 30.8249 80.5223 30.5203 80.2541 30.2283C79.9986 29.9364 79.7623 29.6952 79.5451 29.5048L80.4265 28.8574C80.6181 29.0224 80.8544 29.2636 81.1355 29.5809C81.4165 29.8983 81.6847 30.222 81.9402 30.552C82.2084 30.8694 82.4128 31.1359 82.5533 31.3517L81.6336 32.0182ZM83.3006 30.6663C83.1473 30.3997 82.9429 30.1141 82.6875 29.8094C82.432 29.4921 82.1701 29.1938 81.9019 28.9145C81.6336 28.6226 81.3909 28.3877 81.1738 28.21L82.036 27.5436C82.2404 27.7086 82.4831 27.9498 82.7641 28.2671C83.0451 28.5718 83.3198 28.8828 83.588 29.2001C83.869 29.5175 84.0798 29.784 84.2203 29.9998L83.3006 30.6663Z" fill="white"/>
<path d="M60.0331 43.3663C59.4328 43.3663 58.8899 43.2331 58.4045 42.9665C57.9191 42.6872 57.5103 42.3128 57.1782 41.8431L57.1207 43.1569H55.5879V29.5046H57.3123V35.1788C57.6317 34.7345 58.0213 34.3918 58.4811 34.1506C58.941 33.9094 59.4583 33.7888 60.0331 33.7888C60.8762 33.7888 61.6234 33.9856 62.2749 34.3791C62.9263 34.7599 63.4373 35.3121 63.8077 36.0356C64.1909 36.7465 64.3825 37.597 64.3825 38.5871C64.3825 39.5645 64.1909 40.415 63.8077 41.1386C63.4373 41.8494 62.9263 42.4016 62.2749 42.7951C61.6234 43.1759 60.8762 43.3663 60.0331 43.3663ZM59.9756 41.805C60.7548 41.805 61.3999 41.5194 61.9108 40.9482C62.4218 40.3769 62.6773 39.5899 62.6773 38.5871C62.6773 37.5716 62.4218 36.7782 61.9108 36.207C61.3999 35.6358 60.7548 35.3502 59.9756 35.3502C59.1964 35.3502 58.5514 35.6358 58.0404 36.207C57.5423 36.7782 57.2932 37.5716 57.2932 38.5871C57.2932 39.5899 57.5423 40.3769 58.0404 40.9482C58.5514 41.5194 59.1964 41.805 59.9756 41.805Z" fill="white"/>
<path d="M49.4889 43.3665C48.6203 43.3665 47.8539 43.1825 47.1897 42.8143C46.5255 42.4462 46.0081 41.9067 45.6377 41.1959C45.2672 40.4723 45.082 39.6028 45.082 38.5873C45.082 37.6099 45.2672 36.7657 45.6377 36.0549C46.0081 35.3313 46.5127 34.7728 47.1514 34.3793C47.8028 33.9858 48.5501 33.789 49.3931 33.789C50.2362 33.789 50.9515 33.9985 51.5391 34.4173C52.1395 34.8236 52.5929 35.3694 52.8995 36.0549C53.2188 36.7403 53.3785 37.4893 53.3785 38.3017V38.7587H46.7682C46.7937 39.7742 47.0492 40.5485 47.5346 41.0816C48.0327 41.6021 48.6906 41.8623 49.5081 41.8623C50.1595 41.8623 50.696 41.7036 51.1176 41.3863C51.5519 41.0689 51.9159 40.5929 52.2097 39.9582L53.5126 40.8151C53.0783 41.7036 52.5227 42.351 51.8457 42.7572C51.1814 43.1634 50.3959 43.3665 49.4889 43.3665ZM46.864 37.3877H51.6924C51.5902 36.7276 51.3347 36.1945 50.926 35.7883C50.5172 35.3821 49.9999 35.179 49.374 35.179C48.7097 35.179 48.1605 35.3694 47.7262 35.7502C47.2919 36.1183 47.0045 36.6642 46.864 37.3877Z" fill="white"/>
<path d="M17.3359 36.2111H25.1667" stroke="white" stroke-width="1.4" stroke-linecap="round"/>
<path d="M17.1825 32.268C16.5952 27.99 3.08712 30.0289 2.30405 30.129C-1.41574 30.6044 1.52096 41.0618 3.08712 42.2501C4.65327 43.4384 9.74328 43.2008 13.4629 42.9631C17.1825 42.7254 17.7698 36.546 17.1825 32.268Z" fill="white" stroke="white" stroke-linecap="round"/>
<path d="M25.3624 32.268C25.9497 27.99 39.4578 30.0289 40.2409 30.129C43.9607 30.6044 41.024 41.0618 39.4578 42.2501C37.8917 43.4384 32.8016 43.2008 29.082 42.9631C25.3624 42.7254 24.7751 36.546 25.3624 32.268Z" fill="white" stroke="white" stroke-linecap="round"/>
</svg>
