<svg width="52" height="50" viewBox="0 0 52 50" fill="none" xmlns="http://www.w3.org/2000/svg">
<path d="M49 45.5832C45.3217 42.8113 44.7087 39.693 44.5861 39C43.1149 41.4254 35.1915 41.1927 39.0473 43.5043C43.093 45.9296 46.9157 46.5071 49 45.5832Z" fill="black" stroke="black" stroke-width="3" stroke-linecap="round"/>
<rect width="50" height="50" rx="25" fill="black"/>
<path d="M20.844 34.56C20.844 35.08 20.914 35.53 21.054 35.91C21.194 36.27 21.404 36.56 21.684 36.78C21.984 37.02 22.354 37.19 22.794 37.29C23.254 37.39 23.804 37.44 24.444 37.44L24.174 39.33C23.214 39.33 22.384 39.23 21.684 39.03C20.984 38.85 20.414 38.56 19.974 38.16C19.554 37.76 19.244 37.27 19.044 36.69C18.844 36.11 18.744 35.44 18.744 34.68V30.78H20.844V34.56ZM13.524 20.76C13.524 18.72 14.094 17.17 15.234 16.11C16.374 15.05 17.934 14.52 19.914 14.52C21.894 14.52 23.434 15.08 24.534 16.2C25.634 17.3 26.184 18.83 26.184 20.79V30.42C26.184 31.64 25.914 32.69 25.374 33.57C24.854 34.45 24.114 35.13 23.154 35.61C22.214 36.09 21.124 36.33 19.884 36.33C18.704 36.33 17.634 36.11 16.674 35.67C15.714 35.23 14.944 34.57 14.364 33.69C13.804 32.81 13.524 31.72 13.524 30.42V20.76ZM15.774 30.21C15.774 31.05 15.944 31.77 16.284 32.37C16.624 32.95 17.094 33.39 17.694 33.69C18.314 33.99 19.024 34.14 19.824 34.14C20.644 34.14 21.364 34 21.984 33.72C22.604 33.42 23.084 32.97 23.424 32.37C23.764 31.77 23.934 31.04 23.934 30.18V20.91C23.934 19.97 23.774 19.2 23.454 18.6C23.154 17.98 22.694 17.52 22.074 17.22C21.474 16.9 20.724 16.74 19.824 16.74C18.984 16.74 18.254 16.9 17.634 17.22C17.034 17.52 16.574 17.98 16.254 18.6C15.934 19.2 15.774 19.97 15.774 20.91V30.21ZM29.9489 24.2C30.1489 23.6533 30.4223 23.2067 30.7689 22.86C31.1289 22.5133 31.5289 22.2533 31.9689 22.08C32.4223 21.8933 32.8823 21.8 33.3489 21.8C33.9356 21.7867 34.4889 21.9067 35.0089 22.16C35.5289 22.4133 35.9556 22.7867 36.2889 23.28C36.6223 23.76 36.7889 24.3533 36.7889 25.06C36.7889 25.5267 36.7023 26.0133 36.5289 26.52C36.3556 27.0133 36.0623 27.5867 35.6489 28.24L31.4089 34.62H36.8289V36H29.6689V34.62L34.4089 27.5C34.6756 27.0867 34.8689 26.7533 34.9889 26.5C35.1089 26.2467 35.1889 26.0267 35.2289 25.84C35.2689 25.64 35.2889 25.44 35.2889 25.24C35.2889 24.8133 35.1956 24.4533 35.0089 24.16C34.8223 23.8533 34.5756 23.6267 34.2689 23.48C33.9756 23.32 33.6623 23.24 33.3289 23.24C33.0356 23.2267 32.7556 23.28 32.4889 23.4C32.2356 23.5067 32.0023 23.6733 31.7889 23.9C31.5756 24.1267 31.4023 24.4133 31.2689 24.76L29.9489 24.2Z" fill="white"/>
</svg>
