<svg width="52" height="50" viewBox="0 0 52 50" fill="none" xmlns="http://www.w3.org/2000/svg">
<path d="M49 45.5832C45.3217 42.8113 44.7087 39.693 44.5861 39C43.1149 41.4254 35.1915 41.1927 39.0473 43.5043C43.093 45.9296 46.9157 46.5071 49 45.5832Z" fill="black" stroke="black" stroke-width="3" stroke-linecap="round"/>
<rect width="50" height="50" rx="25" fill="black"/>
<path d="M20.2386 34.56C20.2386 35.08 20.3086 35.53 20.4486 35.91C20.5886 36.27 20.7986 36.56 21.0786 36.78C21.3786 37.02 21.7486 37.19 22.1886 37.29C22.6486 37.39 23.1986 37.44 23.8386 37.44L23.5686 39.33C22.6086 39.33 21.7786 39.23 21.0786 39.03C20.3786 38.85 19.8086 38.56 19.3686 38.16C18.9486 37.76 18.6386 37.27 18.4386 36.69C18.2386 36.11 18.1386 35.44 18.1386 34.68V30.78H20.2386V34.56ZM12.9186 20.76C12.9186 18.72 13.4886 17.17 14.6286 16.11C15.7686 15.05 17.3286 14.52 19.3086 14.52C21.2886 14.52 22.8286 15.08 23.9286 16.2C25.0286 17.3 25.5786 18.83 25.5786 20.79V30.42C25.5786 31.64 25.3086 32.69 24.7686 33.57C24.2486 34.45 23.5086 35.13 22.5486 35.61C21.6086 36.09 20.5186 36.33 19.2786 36.33C18.0986 36.33 17.0286 36.11 16.0686 35.67C15.1086 35.23 14.3386 34.57 13.7586 33.69C13.1986 32.81 12.9186 31.72 12.9186 30.42V20.76ZM15.1686 30.21C15.1686 31.05 15.3386 31.77 15.6786 32.37C16.0186 32.95 16.4886 33.39 17.0886 33.69C17.7086 33.99 18.4186 34.14 19.2186 34.14C20.0386 34.14 20.7586 34 21.3786 33.72C21.9986 33.42 22.4786 32.97 22.8186 32.37C23.1586 31.77 23.3286 31.04 23.3286 30.18V20.91C23.3286 19.97 23.1686 19.2 22.8486 18.6C22.5486 17.98 22.0886 17.52 21.4686 17.22C20.8686 16.9 20.1186 16.74 19.2186 16.74C18.3786 16.74 17.6486 16.9 17.0286 17.22C16.4286 17.52 15.9686 17.98 15.6486 18.6C15.3286 19.2 15.1686 19.97 15.1686 20.91V30.21ZM33.2035 21.82C34.0035 21.82 34.7235 22.0067 35.3635 22.38C36.0035 22.7533 36.5101 23.26 36.8835 23.9C37.2701 24.54 37.4635 25.26 37.4635 26.06V31.22C37.4635 32.18 37.2501 33.02 36.8235 33.74C36.4101 34.46 35.8368 35.02 35.1035 35.42C34.3701 35.82 33.5301 36.02 32.5835 36.02H31.8835V34.6H32.6435C33.3768 34.6 33.9835 34.44 34.4635 34.12C34.9568 33.8 35.3301 33.3667 35.5835 32.82C35.8501 32.2733 35.9835 31.6533 35.9835 30.96V29.18C35.7968 29.38 35.5701 29.5667 35.3035 29.74C35.0368 29.9 34.7301 30.0333 34.3835 30.14C34.0501 30.2333 33.6701 30.28 33.2435 30.28C32.4435 30.28 31.7168 30.1 31.0635 29.74C30.4101 29.3667 29.8901 28.8667 29.5035 28.24C29.1301 27.6 28.9435 26.8733 28.9435 26.06C28.9435 25.46 29.0501 24.9067 29.2635 24.4C29.4901 23.88 29.7968 23.4267 30.1835 23.04C30.5701 22.6533 31.0168 22.3533 31.5235 22.14C32.0435 21.9267 32.6035 21.82 33.2035 21.82ZM33.2035 23.28C32.8301 23.28 32.4701 23.3533 32.1235 23.5C31.7901 23.6333 31.4968 23.8267 31.2435 24.08C30.9901 24.3333 30.7901 24.6267 30.6435 24.96C30.4968 25.2933 30.4235 25.6533 30.4235 26.04C30.4235 26.4267 30.4968 26.7933 30.6435 27.14C30.7901 27.4733 30.9901 27.7667 31.2435 28.02C31.4968 28.2733 31.7901 28.4733 32.1235 28.62C32.4701 28.7667 32.8301 28.84 33.2035 28.84C33.5901 28.84 33.9501 28.7667 34.2835 28.62C34.6301 28.4733 34.9301 28.2733 35.1835 28.02C35.4368 27.7667 35.6301 27.4733 35.7635 27.14C35.9101 26.7933 35.9835 26.4267 35.9835 26.04C35.9835 25.52 35.8568 25.0533 35.6035 24.64C35.3635 24.2267 35.0301 23.9 34.6035 23.66C34.1901 23.4067 33.7235 23.28 33.2035 23.28Z" fill="white"/>
</svg>
