<svg width="52" height="50" viewBox="0 0 52 50" fill="none" xmlns="http://www.w3.org/2000/svg">
<path d="M49 45.5832C45.3217 42.8113 44.7087 39.693 44.5861 39C43.1149 41.4254 35.1915 41.1927 39.0473 43.5043C43.093 45.9296 46.9157 46.5071 49 45.5832Z" fill="black" stroke="black" stroke-width="3" stroke-linecap="round"/>
<rect width="50" height="50" rx="25" fill="black"/>
<path d="M20.6096 34.56C20.6096 35.08 20.6796 35.53 20.8196 35.91C20.9596 36.27 21.1696 36.56 21.4496 36.78C21.7496 37.02 22.1196 37.19 22.5596 37.29C23.0196 37.39 23.5696 37.44 24.2096 37.44L23.9396 39.33C22.9796 39.33 22.1496 39.23 21.4496 39.03C20.7496 38.85 20.1796 38.56 19.7396 38.16C19.3196 37.76 19.0096 37.27 18.8096 36.69C18.6096 36.11 18.5096 35.44 18.5096 34.68V30.78H20.6096V34.56ZM13.2896 20.76C13.2896 18.72 13.8596 17.17 14.9996 16.11C16.1396 15.05 17.6996 14.52 19.6796 14.52C21.6596 14.52 23.1996 15.08 24.2996 16.2C25.3996 17.3 25.9496 18.83 25.9496 20.79V30.42C25.9496 31.64 25.6796 32.69 25.1396 33.57C24.6196 34.45 23.8796 35.13 22.9196 35.61C21.9796 36.09 20.8896 36.33 19.6496 36.33C18.4696 36.33 17.3996 36.11 16.4396 35.67C15.4796 35.23 14.7096 34.57 14.1296 33.69C13.5696 32.81 13.2896 31.72 13.2896 30.42V20.76ZM15.5396 30.21C15.5396 31.05 15.7096 31.77 16.0496 32.37C16.3896 32.95 16.8596 33.39 17.4596 33.69C18.0796 33.99 18.7896 34.14 19.5896 34.14C20.4096 34.14 21.1296 34 21.7496 33.72C22.3696 33.42 22.8496 32.97 23.1896 32.37C23.5296 31.77 23.6996 31.04 23.6996 30.18V20.91C23.6996 19.97 23.5396 19.2 23.2196 18.6C22.9196 17.98 22.4596 17.52 21.8396 17.22C21.2396 16.9 20.4896 16.74 19.5896 16.74C18.7496 16.74 18.0196 16.9 17.3996 17.22C16.7996 17.52 16.3396 17.98 16.0196 18.6C15.6996 19.2 15.5396 19.97 15.5396 20.91V30.21ZM33.1746 27.76C33.9479 27.8 34.6346 28.0133 35.2346 28.4C35.8346 28.7733 36.3079 29.2733 36.6546 29.9C37.0012 30.5133 37.1746 31.2067 37.1746 31.98C37.1746 32.58 37.0612 33.14 36.8346 33.66C36.6212 34.1667 36.3212 34.62 35.9346 35.02C35.5479 35.4067 35.0946 35.7067 34.5746 35.92C34.0679 36.1333 33.5146 36.24 32.9146 36.24C32.1946 36.24 31.5212 36.0867 30.8946 35.78C30.2812 35.4733 29.7546 35.0267 29.3146 34.44L30.3746 33.48C30.6812 33.8933 31.0479 34.2133 31.4746 34.44C31.9012 34.6667 32.3746 34.78 32.8946 34.78C33.4412 34.78 33.9212 34.66 34.3346 34.42C34.7479 34.1667 35.0746 33.8333 35.3146 33.42C35.5546 32.9933 35.6746 32.5133 35.6746 31.98C35.6746 31.4333 35.5412 30.9533 35.2746 30.54C35.0079 30.1267 34.6479 29.8 34.1946 29.56C33.7546 29.32 33.2679 29.2 32.7346 29.2H30.5146L34.3346 23.5H30.2546V22H36.0546V23.38L33.1346 27.76H33.1746Z" fill="white"/>
</svg>
