<svg width="52" height="50" viewBox="0 0 52 50" fill="none" xmlns="http://www.w3.org/2000/svg">
<path d="M49 45.5832C45.3217 42.8113 44.7087 39.693 44.5861 39C43.1149 41.4254 35.1915 41.1927 39.0473 43.5043C43.093 45.9296 46.9157 46.5071 49 45.5832Z" fill="black" stroke="black" stroke-width="3" stroke-linecap="round"/>
<rect width="50" height="50" rx="25" fill="black"/>
<path d="M20.6194 34.56C20.6194 35.08 20.6894 35.53 20.8294 35.91C20.9694 36.27 21.1794 36.56 21.4594 36.78C21.7594 37.02 22.1294 37.19 22.5694 37.29C23.0294 37.39 23.5794 37.44 24.2194 37.44L23.9494 39.33C22.9894 39.33 22.1594 39.23 21.4594 39.03C20.7594 38.85 20.1894 38.56 19.7494 38.16C19.3294 37.76 19.0194 37.27 18.8194 36.69C18.6194 36.11 18.5194 35.44 18.5194 34.68V30.78H20.6194V34.56ZM13.2994 20.76C13.2994 18.72 13.8694 17.17 15.0094 16.11C16.1494 15.05 17.7094 14.52 19.6894 14.52C21.6694 14.52 23.2094 15.08 24.3094 16.2C25.4094 17.3 25.9594 18.83 25.9594 20.79V30.42C25.9594 31.64 25.6894 32.69 25.1494 33.57C24.6294 34.45 23.8894 35.13 22.9294 35.61C21.9894 36.09 20.8994 36.33 19.6594 36.33C18.4794 36.33 17.4094 36.11 16.4494 35.67C15.4894 35.23 14.7194 34.57 14.1394 33.69C13.5794 32.81 13.2994 31.72 13.2994 30.42V20.76ZM15.5494 30.21C15.5494 31.05 15.7194 31.77 16.0594 32.37C16.3994 32.95 16.8694 33.39 17.4694 33.69C18.0894 33.99 18.7994 34.14 19.5994 34.14C20.4194 34.14 21.1394 34 21.7594 33.72C22.3794 33.42 22.8594 32.97 23.1994 32.37C23.5394 31.77 23.7094 31.04 23.7094 30.18V20.91C23.7094 19.97 23.5494 19.2 23.2294 18.6C22.9294 17.98 22.4694 17.52 21.8494 17.22C21.2494 16.9 20.4994 16.74 19.5994 16.74C18.7594 16.74 18.0294 16.9 17.4094 17.22C16.8094 17.52 16.3494 17.98 16.0294 18.6C15.7094 19.2 15.5494 19.97 15.5494 20.91V30.21ZM31.1643 36H29.5243L35.7043 23.5H29.5043V22H37.3643V23.46L31.1643 36Z" fill="white"/>
</svg>
