<svg width="52" height="50" viewBox="0 0 52 50" fill="none" xmlns="http://www.w3.org/2000/svg">
<path d="M49 45.5832C45.3217 42.8113 44.7087 39.693 44.5861 39C43.1149 41.4254 35.1915 41.1927 39.0473 43.5043C43.093 45.9296 46.9157 46.5071 49 45.5832Z" fill="black" stroke="black" stroke-width="3" stroke-linecap="round"/>
<rect width="50" height="50" rx="25" fill="black"/>
<path d="M21.0442 34.56C21.0442 35.08 21.1142 35.53 21.2542 35.91C21.3942 36.27 21.6042 36.56 21.8842 36.78C22.1842 37.02 22.5542 37.19 22.9942 37.29C23.4542 37.39 24.0042 37.44 24.6442 37.44L24.3742 39.33C23.4142 39.33 22.5842 39.23 21.8842 39.03C21.1842 38.85 20.6142 38.56 20.1742 38.16C19.7542 37.76 19.4442 37.27 19.2442 36.69C19.0442 36.11 18.9442 35.44 18.9442 34.68V30.78H21.0442V34.56ZM13.7242 20.76C13.7242 18.72 14.2942 17.17 15.4342 16.11C16.5742 15.05 18.1342 14.52 20.1142 14.52C22.0942 14.52 23.6342 15.08 24.7342 16.2C25.8342 17.3 26.3842 18.83 26.3842 20.79V30.42C26.3842 31.64 26.1142 32.69 25.5742 33.57C25.0542 34.45 24.3142 35.13 23.3542 35.61C22.4142 36.09 21.3242 36.33 20.0842 36.33C18.9042 36.33 17.8342 36.11 16.8742 35.67C15.9142 35.23 15.1442 34.57 14.5642 33.69C14.0042 32.81 13.7242 31.72 13.7242 30.42V20.76ZM15.9742 30.21C15.9742 31.05 16.1442 31.77 16.4842 32.37C16.8242 32.95 17.2942 33.39 17.8942 33.69C18.5142 33.99 19.2242 34.14 20.0242 34.14C20.8442 34.14 21.5642 34 22.1842 33.72C22.8042 33.42 23.2842 32.97 23.6242 32.37C23.9642 31.77 24.1342 31.04 24.1342 30.18V20.91C24.1342 19.97 23.9742 19.2 23.6542 18.6C23.3542 17.98 22.8942 17.52 22.2742 17.22C21.6742 16.9 20.9242 16.74 20.0242 16.74C19.1842 16.74 18.4542 16.9 17.8342 17.22C17.2342 17.52 16.7742 17.98 16.4542 18.6C16.1342 19.2 15.9742 19.97 15.9742 20.91V30.21ZM30.1879 17.28C30.1679 17.28 30.2779 17.24 30.5179 17.16C30.7779 17.06 31.1079 16.93 31.5079 16.77C31.9079 16.59 32.3179 16.36 32.7379 16.08C33.1779 15.78 33.5479 15.42 33.8479 15H36.0379V36H33.8479L33.8779 17.73C33.6979 17.87 33.4679 18.01 33.1879 18.15C32.9079 18.29 32.6079 18.42 32.2879 18.54C31.9879 18.66 31.6979 18.76 31.4179 18.84C31.1579 18.92 30.9479 18.98 30.7879 19.02L30.1879 17.28Z" fill="white"/>
</svg>
