<svg width="52" height="50" viewBox="0 0 52 50" fill="none" xmlns="http://www.w3.org/2000/svg">
<path d="M49 45.5832C45.3217 42.8113 44.7087 39.693 44.5861 39C43.1149 41.4254 35.1915 41.1927 39.0473 43.5043C43.093 45.9296 46.9157 46.5071 49 45.5832Z" fill="black" stroke="black" stroke-width="3" stroke-linecap="round"/>
<rect width="50" height="50" rx="25" fill="black"/>
<path d="M16.8261 34.56C16.8261 35.08 16.8961 35.53 17.0361 35.91C17.1761 36.27 17.3861 36.56 17.6661 36.78C17.9661 37.02 18.3361 37.19 18.7761 37.29C19.2361 37.39 19.7861 37.44 20.4261 37.44L20.1561 39.33C19.1961 39.33 18.3661 39.23 17.6661 39.03C16.9661 38.85 16.3961 38.56 15.9561 38.16C15.5361 37.76 15.2261 37.27 15.0261 36.69C14.8261 36.11 14.7261 35.44 14.7261 34.68V30.78H16.8261V34.56ZM9.50605 20.76C9.50605 18.72 10.0761 17.17 11.2161 16.11C12.3561 15.05 13.9161 14.52 15.8961 14.52C17.8761 14.52 19.4161 15.08 20.5161 16.2C21.6161 17.3 22.1661 18.83 22.1661 20.79V30.42C22.1661 31.64 21.8961 32.69 21.3561 33.57C20.8361 34.45 20.0961 35.13 19.1361 35.61C18.1961 36.09 17.1061 36.33 15.8661 36.33C14.6861 36.33 13.6161 36.11 12.6561 35.67C11.6961 35.23 10.9261 34.57 10.3461 33.69C9.78605 32.81 9.50605 31.72 9.50605 30.42V20.76ZM11.7561 30.21C11.7561 31.05 11.9261 31.77 12.2661 32.37C12.6061 32.95 13.0761 33.39 13.6761 33.69C14.2961 33.99 15.0061 34.14 15.8061 34.14C16.6261 34.14 17.3461 34 17.9661 33.72C18.5861 33.42 19.0661 32.97 19.4061 32.37C19.7461 31.77 19.9161 31.04 19.9161 30.18V20.91C19.9161 19.97 19.7561 19.2 19.4361 18.6C19.1361 17.98 18.6761 17.52 18.0561 17.22C17.4561 16.9 16.7061 16.74 15.8061 16.74C14.9661 16.74 14.2361 16.9 13.6161 17.22C13.0161 17.52 12.5561 17.98 12.2361 18.6C11.9161 19.2 11.7561 19.97 11.7561 20.91V30.21ZM25.351 23.52C25.3376 23.52 25.411 23.4933 25.571 23.44C25.7443 23.3733 25.9643 23.2867 26.231 23.18C26.4976 23.06 26.771 22.9067 27.051 22.72C27.3443 22.52 27.591 22.28 27.791 22H29.251V36H27.791L27.811 23.82C27.691 23.9133 27.5376 24.0067 27.351 24.1C27.1643 24.1933 26.9643 24.28 26.751 24.36C26.551 24.44 26.3576 24.5067 26.171 24.56C25.9976 24.6133 25.8576 24.6533 25.751 24.68L25.351 23.52ZM32.3807 25.84C32.3807 24.48 32.7607 23.4467 33.5207 22.74C34.2807 22.0333 35.3207 21.68 36.6407 21.68C37.9607 21.68 38.9873 22.0533 39.7207 22.8C40.454 23.5333 40.8207 24.5533 40.8207 25.86V32.28C40.8207 33.0933 40.6407 33.7933 40.2807 34.38C39.934 34.9667 39.4407 35.42 38.8007 35.74C38.174 36.06 37.4473 36.22 36.6207 36.22C35.834 36.22 35.1207 36.0733 34.4807 35.78C33.8407 35.4867 33.3273 35.0467 32.9407 34.46C32.5673 33.8733 32.3807 33.1467 32.3807 32.28V25.84ZM33.8807 32.14C33.8807 32.7 33.994 33.18 34.2207 33.58C34.4473 33.9667 34.7607 34.26 35.1607 34.46C35.574 34.66 36.0473 34.76 36.5807 34.76C37.1273 34.76 37.6073 34.6667 38.0207 34.48C38.434 34.28 38.754 33.98 38.9807 33.58C39.2073 33.18 39.3207 32.6933 39.3207 32.12V25.94C39.3207 25.3133 39.214 24.8 39.0007 24.4C38.8007 23.9867 38.494 23.68 38.0807 23.48C37.6807 23.2667 37.1807 23.16 36.5807 23.16C36.0207 23.16 35.534 23.2667 35.1207 23.48C34.7207 23.68 34.414 23.9867 34.2007 24.4C33.9873 24.8 33.8807 25.3133 33.8807 25.94V32.14Z" fill="white"/>
</svg>
