<svg width="52" height="50" viewBox="0 0 52 50" fill="none" xmlns="http://www.w3.org/2000/svg">
<path d="M49 45.5832C45.3217 42.8113 44.7087 39.693 44.5861 39C43.1149 41.4254 35.1915 41.1927 39.0473 43.5043C43.093 45.9296 46.9157 46.5071 49 45.5832Z" fill="black" stroke="black" stroke-width="3" stroke-linecap="round"/>
<rect width="50" height="50" rx="25" fill="black"/>
<path d="M20.219 34.56C20.219 35.08 20.289 35.53 20.429 35.91C20.569 36.27 20.779 36.56 21.059 36.78C21.359 37.02 21.729 37.19 22.169 37.29C22.629 37.39 23.179 37.44 23.819 37.44L23.549 39.33C22.589 39.33 21.759 39.23 21.059 39.03C20.359 38.85 19.789 38.56 19.349 38.16C18.929 37.76 18.619 37.27 18.419 36.69C18.219 36.11 18.119 35.44 18.119 34.68V30.78H20.219V34.56ZM12.899 20.76C12.899 18.72 13.469 17.17 14.609 16.11C15.749 15.05 17.309 14.52 19.289 14.52C21.269 14.52 22.809 15.08 23.909 16.2C25.009 17.3 25.559 18.83 25.559 20.79V30.42C25.559 31.64 25.289 32.69 24.749 33.57C24.229 34.45 23.489 35.13 22.529 35.61C21.589 36.09 20.499 36.33 19.259 36.33C18.079 36.33 17.009 36.11 16.049 35.67C15.089 35.23 14.319 34.57 13.739 33.69C13.179 32.81 12.899 31.72 12.899 30.42V20.76ZM15.149 30.21C15.149 31.05 15.319 31.77 15.659 32.37C15.999 32.95 16.469 33.39 17.069 33.69C17.689 33.99 18.399 34.14 19.199 34.14C20.019 34.14 20.739 34 21.359 33.72C21.979 33.42 22.459 32.97 22.799 32.37C23.139 31.77 23.309 31.04 23.309 30.18V20.91C23.309 19.97 23.149 19.2 22.829 18.6C22.529 17.98 22.069 17.52 21.449 17.22C20.849 16.9 20.099 16.74 19.199 16.74C18.359 16.74 17.629 16.9 17.009 17.22C16.409 17.52 15.949 17.98 15.629 18.6C15.309 19.2 15.149 19.97 15.149 20.91V30.21ZM33.9039 23.36C33.1706 23.36 32.5506 23.52 32.0439 23.84C31.5506 24.1467 31.1773 24.58 30.9239 25.14C30.6706 25.6867 30.5439 26.3133 30.5439 27.02V28.8C30.7706 28.56 31.0373 28.36 31.3439 28.2C31.6506 28.04 31.9773 27.92 32.3239 27.84C32.6706 27.7467 33.0039 27.7 33.3239 27.7C34.1106 27.7 34.8306 27.8867 35.4839 28.26C36.1373 28.6333 36.6573 29.14 37.0439 29.78C37.4306 30.4067 37.6239 31.12 37.6239 31.92C37.6239 32.52 37.5106 33.08 37.2839 33.6C37.0706 34.1067 36.7639 34.56 36.3639 34.96C35.9773 35.3467 35.5239 35.6533 35.0039 35.88C34.4973 36.0933 33.9506 36.2 33.3639 36.2C32.5639 36.2 31.8373 36.0133 31.1839 35.64C30.5439 35.2533 30.0306 34.74 29.6439 34.1C29.2706 33.4467 29.0839 32.72 29.0839 31.92V26.76C29.0839 25.8 29.2906 24.9667 29.7039 24.26C30.1173 23.54 30.6906 22.9867 31.4239 22.6C32.1706 22.2 33.0239 22 33.9839 22H34.6839V23.36H33.9039ZM33.3639 29.16C32.9773 29.16 32.6106 29.2333 32.2639 29.38C31.9306 29.5267 31.6306 29.7267 31.3639 29.98C31.1106 30.2333 30.9106 30.5333 30.7639 30.88C30.6173 31.2133 30.5439 31.5667 30.5439 31.94C30.5439 32.4467 30.6706 32.9133 30.9239 33.34C31.1906 33.7667 31.5373 34.1067 31.9639 34.36C32.3906 34.6133 32.8573 34.74 33.3639 34.74C33.7373 34.74 34.0906 34.6667 34.4239 34.52C34.7706 34.3733 35.0706 34.1733 35.3239 33.92C35.5773 33.6533 35.7773 33.3533 35.9239 33.02C36.0706 32.6733 36.1439 32.3133 36.1439 31.94C36.1439 31.5667 36.0706 31.2133 35.9239 30.88C35.7773 30.5333 35.5773 30.2333 35.3239 29.98C35.0706 29.7267 34.7706 29.5267 34.4239 29.38C34.0906 29.2333 33.7373 29.16 33.3639 29.16Z" fill="white"/>
</svg>
