<svg width="52" height="50" viewBox="0 0 52 50" fill="none" xmlns="http://www.w3.org/2000/svg">
<path d="M49 45.5832C45.3217 42.8113 44.7087 39.693 44.5861 39C43.1149 41.4254 35.1915 41.1927 39.0473 43.5043C43.093 45.9296 46.9157 46.5071 49 45.5832Z" fill="black" stroke="black" stroke-width="3" stroke-linecap="round"/>
<rect width="50" height="50" rx="25" fill="black"/>
<path d="M20.6487 34.56C20.6487 35.08 20.7187 35.53 20.8587 35.91C20.9987 36.27 21.2087 36.56 21.4887 36.78C21.7887 37.02 22.1587 37.19 22.5987 37.29C23.0587 37.39 23.6087 37.44 24.2487 37.44L23.9787 39.33C23.0187 39.33 22.1887 39.23 21.4887 39.03C20.7887 38.85 20.2187 38.56 19.7787 38.16C19.3587 37.76 19.0487 37.27 18.8487 36.69C18.6487 36.11 18.5487 35.44 18.5487 34.68V30.78H20.6487V34.56ZM13.3287 20.76C13.3287 18.72 13.8987 17.17 15.0387 16.11C16.1787 15.05 17.7387 14.52 19.7187 14.52C21.6987 14.52 23.2387 15.08 24.3387 16.2C25.4387 17.3 25.9887 18.83 25.9887 20.79V30.42C25.9887 31.64 25.7187 32.69 25.1787 33.57C24.6587 34.45 23.9187 35.13 22.9587 35.61C22.0187 36.09 20.9287 36.33 19.6887 36.33C18.5087 36.33 17.4387 36.11 16.4787 35.67C15.5187 35.23 14.7487 34.57 14.1687 33.69C13.6087 32.81 13.3287 31.72 13.3287 30.42V20.76ZM15.5787 30.21C15.5787 31.05 15.7487 31.77 16.0887 32.37C16.4287 32.95 16.8987 33.39 17.4987 33.69C18.1187 33.99 18.8287 34.14 19.6287 34.14C20.4487 34.14 21.1687 34 21.7887 33.72C22.4087 33.42 22.8887 32.97 23.2287 32.37C23.5687 31.77 23.7387 31.04 23.7387 30.18V20.91C23.7387 19.97 23.5787 19.2 23.2587 18.6C22.9587 17.98 22.4987 17.52 21.8787 17.22C21.2787 16.9 20.5287 16.74 19.6287 16.74C18.7887 16.74 18.0587 16.9 17.4387 17.22C16.8387 17.52 16.3787 17.98 16.0587 18.6C15.7387 19.2 15.5787 19.97 15.5787 20.91V30.21ZM31.6136 27.76H32.4536C33.3736 27.76 34.1803 27.9267 34.8736 28.26C35.5803 28.5933 36.1336 29.08 36.5336 29.72C36.9336 30.3467 37.1336 31.1133 37.1336 32.02C37.1336 32.5 37.0403 32.9933 36.8536 33.5C36.667 33.9933 36.3936 34.4467 36.0336 34.86C35.687 35.2733 35.247 35.6067 34.7136 35.86C34.1936 36.1133 33.5936 36.24 32.9136 36.24C32.4336 36.24 31.9736 36.18 31.5336 36.06C31.107 35.9533 30.7336 35.8267 30.4136 35.68C30.0936 35.5333 29.8403 35.4067 29.6536 35.3C29.467 35.1933 29.3736 35.1467 29.3736 35.16L29.9336 33.9C29.9336 33.8867 30.0003 33.9267 30.1336 34.02C30.2803 34.1 30.487 34.2 30.7536 34.32C31.0203 34.44 31.327 34.5467 31.6736 34.64C32.0336 34.72 32.4336 34.76 32.8736 34.76C33.247 34.76 33.6003 34.6933 33.9336 34.56C34.2803 34.4267 34.5803 34.2333 34.8336 33.98C35.087 33.7267 35.287 33.4333 35.4336 33.1C35.5803 32.7533 35.6536 32.3733 35.6536 31.96C35.6536 31.3867 35.5203 30.8933 35.2536 30.48C35.0003 30.0667 34.6203 29.7467 34.1136 29.52C33.6203 29.2933 33.007 29.18 32.2736 29.18H29.9936L30.7136 22H36.0336V23.5H32.0336L31.6136 27.76Z" fill="white"/>
</svg>
