<svg width="52" height="50" viewBox="0 0 52 50" fill="none" xmlns="http://www.w3.org/2000/svg">
<path d="M49 45.5832C45.3217 42.8113 44.7087 39.693 44.5861 39C43.1149 41.4254 35.1915 41.1927 39.0473 43.5043C43.093 45.9296 46.9157 46.5071 49 45.5832Z" fill="black" stroke="black" stroke-width="3" stroke-linecap="round"/>
<rect width="50" height="50" rx="25" fill="black"/>
<path d="M20.0042 34.56C20.0042 35.08 20.0742 35.53 20.2142 35.91C20.3542 36.27 20.5642 36.56 20.8442 36.78C21.1442 37.02 21.5142 37.19 21.9542 37.29C22.4142 37.39 22.9642 37.44 23.6042 37.44L23.3342 39.33C22.3742 39.33 21.5442 39.23 20.8442 39.03C20.1442 38.85 19.5742 38.56 19.1342 38.16C18.7142 37.76 18.4042 37.27 18.2042 36.69C18.0042 36.11 17.9042 35.44 17.9042 34.68V30.78H20.0042V34.56ZM12.6842 20.76C12.6842 18.72 13.2542 17.17 14.3942 16.11C15.5342 15.05 17.0942 14.52 19.0742 14.52C21.0542 14.52 22.5942 15.08 23.6942 16.2C24.7942 17.3 25.3442 18.83 25.3442 20.79V30.42C25.3442 31.64 25.0742 32.69 24.5342 33.57C24.0142 34.45 23.2742 35.13 22.3142 35.61C21.3742 36.09 20.2842 36.33 19.0442 36.33C17.8642 36.33 16.7942 36.11 15.8342 35.67C14.8742 35.23 14.1042 34.57 13.5242 33.69C12.9642 32.81 12.6842 31.72 12.6842 30.42V20.76ZM14.9342 30.21C14.9342 31.05 15.1042 31.77 15.4442 32.37C15.7842 32.95 16.2542 33.39 16.8542 33.69C17.4742 33.99 18.1842 34.14 18.9842 34.14C19.8042 34.14 20.5242 34 21.1442 33.72C21.7642 33.42 22.2442 32.97 22.5842 32.37C22.9242 31.77 23.0942 31.04 23.0942 30.18V20.91C23.0942 19.97 22.9342 19.2 22.6142 18.6C22.3142 17.98 21.8542 17.52 21.2342 17.22C20.6342 16.9 19.8842 16.74 18.9842 16.74C18.1442 16.74 17.4142 16.9 16.7942 17.22C16.1942 17.52 15.7342 17.98 15.4142 18.6C15.0942 19.2 14.9342 19.97 14.9342 20.91V30.21ZM34.8891 36V29.2H28.5691L32.4091 22H33.9491L31.0491 27.72H34.8891V22H36.3691V27.72H37.8091L37.4091 29.2H36.3691V36H34.8891Z" fill="white"/>
</svg>
