<svg width="52" height="50" viewBox="0 0 52 50" fill="none" xmlns="http://www.w3.org/2000/svg">
<path d="M49 45.5832C45.3217 42.8113 44.7087 39.693 44.5861 39C43.1149 41.4254 35.1915 41.1927 39.0473 43.5043C43.093 45.9296 46.9157 46.5071 49 45.5832Z" fill="black" stroke="black" stroke-width="3" stroke-linecap="round"/>
<rect width="50" height="50" rx="25" fill="black"/>
<path d="M20.219 34.56C20.219 35.08 20.289 35.53 20.429 35.91C20.569 36.27 20.779 36.56 21.059 36.78C21.359 37.02 21.729 37.19 22.169 37.29C22.629 37.39 23.179 37.44 23.819 37.44L23.549 39.33C22.589 39.33 21.759 39.23 21.059 39.03C20.359 38.85 19.789 38.56 19.349 38.16C18.929 37.76 18.619 37.27 18.419 36.69C18.219 36.11 18.119 35.44 18.119 34.68V30.78H20.219V34.56ZM12.899 20.76C12.899 18.72 13.469 17.17 14.609 16.11C15.749 15.05 17.309 14.52 19.289 14.52C21.269 14.52 22.809 15.08 23.909 16.2C25.009 17.3 25.559 18.83 25.559 20.79V30.42C25.559 31.64 25.289 32.69 24.749 33.57C24.229 34.45 23.489 35.13 22.529 35.61C21.589 36.09 20.499 36.33 19.259 36.33C18.079 36.33 17.009 36.11 16.049 35.67C15.089 35.23 14.319 34.57 13.739 33.69C13.179 32.81 12.899 31.72 12.899 30.42V20.76ZM15.149 30.21C15.149 31.05 15.319 31.77 15.659 32.37C15.999 32.95 16.469 33.39 17.069 33.69C17.689 33.99 18.399 34.14 19.199 34.14C20.019 34.14 20.739 34 21.359 33.72C21.979 33.42 22.459 32.97 22.799 32.37C23.139 31.77 23.309 31.04 23.309 30.18V20.91C23.309 19.97 23.149 19.2 22.829 18.6C22.529 17.98 22.069 17.52 21.449 17.22C20.849 16.9 20.099 16.74 19.199 16.74C18.359 16.74 17.629 16.9 17.009 17.22C16.409 17.52 15.949 17.98 15.629 18.6C15.309 19.2 15.149 19.97 15.149 20.91V30.21ZM33.2839 21.82C33.9506 21.82 34.5439 21.9733 35.0639 22.28C35.5973 22.5867 36.0173 23.0067 36.3239 23.54C36.6306 24.0733 36.7839 24.6733 36.7839 25.34C36.7839 25.9667 36.6573 26.52 36.4039 27C36.1639 27.4667 35.7839 27.88 35.2639 28.24C35.7173 28.48 36.1106 28.7933 36.4439 29.18C36.7906 29.5667 37.0573 30 37.2439 30.48C37.4439 30.9467 37.5439 31.4467 37.5439 31.98C37.5439 32.7533 37.3506 33.4667 36.9639 34.12C36.5906 34.7733 36.0773 35.2933 35.4239 35.68C34.7839 36.0533 34.0639 36.24 33.2639 36.24C32.4773 36.24 31.7573 36.0533 31.1039 35.68C30.4639 35.2933 29.9506 34.78 29.5639 34.14C29.1906 33.4867 29.0039 32.7667 29.0039 31.98C29.0039 31.46 29.0973 30.96 29.2839 30.48C29.4706 29.9867 29.7373 29.54 30.0839 29.14C30.4306 28.74 30.8306 28.4333 31.2839 28.22C30.9639 28.0067 30.6906 27.7467 30.4639 27.44C30.2373 27.1333 30.0639 26.8067 29.9439 26.46C29.8373 26.1 29.7839 25.7267 29.7839 25.34C29.7839 24.6867 29.9373 24.0933 30.2439 23.56C30.5639 23.0267 30.9839 22.6067 31.5039 22.3C32.0373 21.98 32.6306 21.82 33.2839 21.82ZM33.2639 27.38C33.6373 27.38 33.9773 27.2867 34.2839 27.1C34.6039 26.9133 34.8573 26.66 35.0439 26.34C35.2306 26.02 35.3239 25.68 35.3239 25.32C35.3239 24.9333 35.2306 24.5867 35.0439 24.28C34.8573 23.96 34.6106 23.7067 34.3039 23.52C33.9973 23.3333 33.6506 23.24 33.2639 23.24C32.8906 23.24 32.5439 23.3333 32.2239 23.52C31.9173 23.7067 31.6706 23.96 31.4839 24.28C31.2973 24.5867 31.2039 24.9333 31.2039 25.32C31.2039 25.68 31.2973 26.02 31.4839 26.34C31.6706 26.6467 31.9173 26.9 32.2239 27.1C32.5439 27.2867 32.8906 27.38 33.2639 27.38ZM33.2639 34.76C33.7839 34.76 34.2506 34.6333 34.6639 34.38C35.0906 34.1267 35.4239 33.7933 35.6639 33.38C35.9173 32.9533 36.0439 32.4867 36.0439 31.98C36.0439 31.4467 35.9239 30.9733 35.6839 30.56C35.4439 30.1333 35.1106 29.8 34.6839 29.56C34.2706 29.32 33.7973 29.2 33.2639 29.2C32.8773 29.2 32.5173 29.2733 32.1839 29.42C31.8506 29.5533 31.5506 29.7467 31.2839 30C31.0306 30.2533 30.8306 30.5533 30.6839 30.9C30.5373 31.2333 30.4639 31.5933 30.4639 31.98C30.4639 32.4867 30.5906 32.9533 30.8439 33.38C31.0973 33.7933 31.4373 34.1267 31.8639 34.38C32.2906 34.6333 32.7573 34.76 33.2639 34.76Z" fill="white"/>
</svg>
